<svg width="43" height="43" viewBox="0 0 43 43" fill="none" xmlns="http://www.w3.org/2000/svg">
<rect width="42.3754" height="42.3754" rx="6" fill="#6DB9FE"/>
<path d="M21.6845 27.4026C20.9722 27.4026 20.3948 26.8251 20.3948 26.1129V16.2897C20.3948 15.5774 20.9722 15 21.6845 15C22.3968 15 22.9742 15.5774 22.9742 16.2897V26.1129C22.9742 26.8251 22.3968 27.4026 21.6845 27.4026ZM17.4069 22.6082C16.6299 22.6082 16 21.9783 16 21.2013C16 20.4242 16.6299 19.7943 17.4069 19.7943H25.9621C26.7391 19.7943 27.369 20.4242 27.369 21.2013C27.369 21.9783 26.7391 22.6082 25.9621 22.6082H17.4069Z" fill="white"/>
</svg>
