<svg width="14" height="16" viewBox="0 0 14 16" fill="none" xmlns="http://www.w3.org/2000/svg">
<path d="M12.0383 8.53064L6.51522 14.0537C5.90934 14.6596 5.08759 15 4.23074 15C3.3739 15 2.55214 14.6596 1.94626 14.0537C1.34038 13.4479 1 12.6261 1 11.7693C1 10.9124 1.34038 10.0907 1.94626 9.48478L9.80051 1.63053C10.0006 1.43056 10.2381 1.27196 10.4994 1.16377C10.7608 1.05558 11.0409 0.999933 11.3238 1C11.6066 1.00007 11.8867 1.05585 12.148 1.16416C12.4093 1.27247 12.6468 1.43119 12.8467 1.63125C13.0467 1.83131 13.2053 2.06881 13.3135 2.33017C13.4217 2.59153 13.4773 2.87164 13.4773 3.15451C13.4772 3.43737 13.4214 3.71746 13.3131 3.97877C13.2048 4.24008 13.0461 4.47749 12.846 4.67746L4.98601 12.5375C4.78211 12.7329 4.50956 12.8398 4.22711 12.8362C3.94467 12.8326 3.67493 12.7182 3.47605 12.5176C3.27716 12.317 3.16504 12.0463 3.16386 11.7639C3.16268 11.4814 3.27253 11.2098 3.46973 11.0075L9.07683 5.40043M4.99248 12.5303L4.9853 12.5375" stroke="#717171" stroke-linecap="round" stroke-linejoin="round"/>
</svg>
