<svg width="17" height="21" viewBox="0 0 17 21" fill="none" xmlns="http://www.w3.org/2000/svg">
<path d="M15.8403 15.0081H15.6688C15.7792 14.7097 15.8372 14.3945 15.8403 14.0763V9.41742C15.8371 7.7666 15.2867 6.16342 14.275 4.8589C13.2634 3.55438 11.8477 2.62217 10.2496 2.20823V1.96317C10.2496 1.46892 10.0532 0.99492 9.70376 0.645434C9.35428 0.295948 8.88027 0.0996094 8.38603 0.0996094C7.89178 0.0996094 7.41778 0.295948 7.06829 0.645434C6.7188 0.99492 6.52247 1.46892 6.52247 1.96317V2.20823C4.92438 2.62217 3.50869 3.55438 2.49704 4.8589C1.48539 6.16342 0.934907 7.7666 0.931781 9.41742V14.0763C0.934869 14.3945 0.99287 14.7097 1.10323 15.0081H0.931781C0.684657 15.0081 0.447655 15.1063 0.272912 15.281C0.0981694 15.4558 0 15.6928 0 15.9399C0 16.187 0.0981694 16.424 0.272912 16.5988C0.447655 16.7735 0.684657 16.8717 0.931781 16.8717H15.8403C16.0874 16.8717 16.3244 16.7735 16.4991 16.5988C16.6739 16.424 16.7721 16.187 16.7721 15.9399C16.7721 15.6928 16.6739 15.4558 16.4991 15.281C16.3244 15.1063 16.0874 15.0081 15.8403 15.0081Z" fill="#67636D"/>
<path d="M5.17676 18.7354C5.49976 19.3015 5.96679 19.7722 6.53046 20.0996C7.09413 20.427 7.73437 20.5994 8.38621 20.5994C9.03806 20.5994 9.6783 20.427 10.242 20.0996C10.8056 19.7722 11.2727 19.3015 11.5957 18.7354H5.17676Z" fill="#67636D"/>
</svg>
