<svg width="43" height="43" viewBox="0 0 43 43" fill="none" xmlns="http://www.w3.org/2000/svg">
<rect y="0.369141" width="42.3754" height="42.3754" rx="6" fill="#FFAB99"/>
<path fill-rule="evenodd" clip-rule="evenodd" d="M10.9174 19.7348L12.401 18.2524C12.8485 17.8037 12.8485 17.0774 12.401 16.6288C11.9524 16.1813 11.2261 16.1813 10.7786 16.6288L7.33645 20.071C6.88782 20.5196 6.88782 21.2459 7.33645 21.6945L10.7786 25.1367C11.2261 25.5841 11.9524 25.5841 12.401 25.1367C12.8485 24.688 12.8485 23.9618 12.401 23.5131L10.9174 22.0296H20.7689C21.4022 22.0296 21.9163 21.5155 21.9163 20.8822C21.9163 20.25 21.4022 19.7348 20.7689 19.7348H10.9174Z" fill="white"/>
<path fill-rule="evenodd" clip-rule="evenodd" d="M14.9717 25.6635V27.9582C14.9717 30.494 17.0266 32.5478 19.5612 32.5478H31.0351C33.5708 32.5478 35.6246 30.494 35.6246 27.9582C35.6246 24.1386 35.6246 18.0104 35.6246 14.1896C35.6246 11.6551 33.5708 9.6001 31.0351 9.6001C27.7547 9.6001 22.8427 9.6001 19.5612 9.6001C17.0266 9.6001 14.9717 11.6551 14.9717 14.1896V16.4844C14.9717 17.1178 15.4857 17.6318 16.1191 17.6318C16.7524 17.6318 17.2664 17.1178 17.2664 16.4844C17.2664 16.4844 17.2664 15.4093 17.2664 14.1896C17.2664 12.9229 18.2945 11.8949 19.5612 11.8949H31.0351C32.3029 11.8949 33.3298 12.9229 33.3298 14.1896V27.9582C33.3298 29.2261 32.3029 30.253 31.0351 30.253C27.7547 30.253 22.8427 30.253 19.5612 30.253C18.2945 30.253 17.2664 29.2261 17.2664 27.9582C17.2664 26.7397 17.2664 25.6635 17.2664 25.6635C17.2664 25.0313 16.7524 24.5161 16.1191 24.5161C15.4857 24.5161 14.9717 25.0313 14.9717 25.6635Z" fill="white"/>
</svg>
