<svg width="16" height="15" viewBox="0 0 16 15" fill="none" xmlns="http://www.w3.org/2000/svg">
<path d="M13.25 2.25H12.5V0.75C12.5 0.551088 12.421 0.360322 12.2803 0.21967C12.1397 0.0790176 11.9489 0 11.75 0C11.5511 0 11.3603 0.0790176 11.2197 0.21967C11.079 0.360322 11 0.551088 11 0.75V2.25H5V0.75C5 0.551088 4.92098 0.360322 4.78033 0.21967C4.63968 0.0790176 4.44891 0 4.25 0C4.05109 0 3.86032 0.0790176 3.71967 0.21967C3.57902 0.360322 3.5 0.551088 3.5 0.75V2.25H2.75C2.15326 2.25 1.58097 2.48705 1.15901 2.90901C0.737053 3.33097 0.5 3.90326 0.5 4.5V5.25H15.5V4.5C15.5 3.90326 15.2629 3.33097 14.841 2.90901C14.419 2.48705 13.8467 2.25 13.25 2.25Z" fill="#B5B5B5"/>
<path d="M0.5 12.75C0.5 13.3467 0.737053 13.919 1.15901 14.341C1.58097 14.7629 2.15326 15 2.75 15H13.25C13.8467 15 14.419 14.7629 14.841 14.341C15.2629 13.919 15.5 13.3467 15.5 12.75V6.75H0.5V12.75Z" fill="#B5B5B5"/>
</svg>
