<svg width="64" height="64" viewBox="0 0 64 64" fill="none" xmlns="http://www.w3.org/2000/svg">
<path d="M32 64C38.329 64 44.5159 62.1232 49.7782 58.607C55.0406 55.0908 59.1421 50.0931 61.5641 44.2459C63.9861 38.3986 64.6198 31.9645 63.3851 25.7571C62.1504 19.5497 59.1027 13.8479 54.6274 9.3726C50.1521 4.89732 44.4503 1.84961 38.2429 0.614885C32.0355 -0.619841 25.6014 0.0138652 19.7541 2.43587C13.9069 4.85787 8.90918 8.95939 5.39297 14.2218C1.87677 19.4841 0 25.671 0 32C0 40.4869 3.37142 48.6263 9.37258 54.6274C15.3737 60.6286 23.5131 64 32 64ZM15.3891 32.8436C15.9341 32.3018 16.6715 31.9977 17.44 31.9977C18.2085 31.9977 18.9459 32.3018 19.4909 32.8436L26.1818 39.5345L43.0254 22.6909C43.582 22.2143 44.2978 21.9653 45.03 21.9936C45.7621 22.0219 46.4566 22.3254 46.9747 22.8435C47.4928 23.3616 47.7963 24.0561 47.8246 24.7882C47.8529 25.5204 47.6039 26.2362 47.1273 26.7927L28.2182 45.7018C27.6731 46.2436 26.9358 46.5478 26.1673 46.5478C25.3987 46.5478 24.6614 46.2436 24.1164 45.7018L15.3891 36.9745C15.1164 36.7041 14.9 36.3824 14.7523 36.0279C14.6046 35.6734 14.5286 35.2931 14.5286 34.9091C14.5286 34.5251 14.6046 34.1448 14.7523 33.7903C14.9 33.4358 15.1164 33.1141 15.3891 32.8436Z" fill="#79E154"/>
</svg>
