<svg width="18" height="17" viewBox="0 0 18 17" fill="none" xmlns="http://www.w3.org/2000/svg">
<path d="M8.94678 10.5C11.8463 10.5 14.1968 8.14949 14.1968 5.25C14.1968 2.3505 11.8463 0 8.94678 0C6.04728 0 3.69678 2.3505 3.69678 5.25C3.69678 8.14949 6.04728 10.5 8.94678 10.5Z" fill="#B5B5B5"/>
<path d="M14.7803 9.9171C14.6085 9.74535 14.4255 9.58485 14.238 9.4281C13.608 10.2299 12.804 10.878 11.8867 11.3235C10.9695 11.769 9.96298 12.0002 8.94327 11.9997C7.92356 11.9992 6.91729 11.767 6.00049 11.3206C5.08368 10.8742 4.2803 10.2253 3.65105 9.42285C2.72355 10.1952 1.97793 11.1627 1.4674 12.2564C0.956867 13.35 0.693997 14.5429 0.697545 15.7499C0.697545 15.9488 0.776563 16.1395 0.917215 16.2802C1.05787 16.4208 1.24863 16.4999 1.44755 16.4999H16.4475C16.6465 16.4999 16.8372 16.4208 16.9779 16.2802C17.1185 16.1395 17.1975 15.9488 17.1975 15.7499C17.2002 14.6661 16.988 13.5926 16.5731 12.5914C16.1581 11.5902 15.5488 10.6812 14.7803 9.9171Z" fill="#B5B5B5"/>
</svg>
