<svg width="10" height="10" viewBox="0 0 10 10" fill="none" xmlns="http://www.w3.org/2000/svg">
<path d="M8.12731 1.43423H7.64923V0.478077C7.64923 0.351283 7.59886 0.229682 7.5092 0.140025C7.41955 0.0503686 7.29795 0 7.17115 0C7.04436 0 6.92276 0.0503686 6.8331 0.140025C6.74344 0.229682 6.69307 0.351283 6.69307 0.478077V1.43423H2.86846V0.478077C2.86846 0.351283 2.81809 0.229682 2.72844 0.140025C2.63878 0.0503686 2.51718 0 2.39038 0C2.26359 0 2.14199 0.0503686 2.05233 0.140025C1.96268 0.229682 1.91231 0.351283 1.91231 0.478077V1.43423H1.43423C1.05385 1.43423 0.689047 1.58534 0.420076 1.85431C0.151106 2.12328 0 2.48808 0 2.86846V3.34654H9.56153V2.86846C9.56153 2.48808 9.41043 2.12328 9.14146 1.85431C8.87249 1.58534 8.50769 1.43423 8.12731 1.43423Z" fill="#B5B5B5"/>
<path d="M0 8.12734C0 8.50772 0.151106 8.87253 0.420076 9.1415C0.689047 9.41046 1.05385 9.56157 1.43423 9.56157H8.12731C8.50769 9.56157 8.87249 9.41046 9.14146 9.1415C9.41043 8.87253 9.56153 8.50772 9.56153 8.12734V4.30273H0V8.12734Z" fill="#B5B5B5"/>
</svg>
