<svg width="13" height="16" viewBox="0 0 13 16" fill="none" xmlns="http://www.w3.org/2000/svg">
<path d="M11.7692 6.38461L11.7692 8.26923C11.7692 8.91187 11.5139 9.52819 11.0595 9.9826C10.6051 10.437 9.98879 10.6923 9.34615 10.6923L8.26923 10.6923C8.05502 10.6923 7.84958 10.7774 7.69811 10.9289C7.54663 11.0803 7.46154 11.2858 7.46154 11.5L7.46154 12.5769C7.46154 13.2196 7.20625 13.8359 6.75184 14.2903C6.29742 14.7447 5.6811 15 5.03846 15L3.69231 15M3.69231 5.84615L9.07692 5.84615M3.69231 3.69231L6.38461 3.69231M5.30769 15L1.80769 15C1.36185 15 1 14.6382 1 14.1923L0.999999 1.80769C0.999999 1.36185 1.36184 1 1.80769 1L10.9615 0.999999C11.4074 0.999999 11.7692 1.36184 11.7692 1.80769L11.7692 8.53846C11.7692 10.2522 11.0885 11.8957 9.87669 13.1075C8.66492 14.3192 7.0214 15 5.30769 15Z" stroke="#717171" stroke-linecap="round" stroke-linejoin="round"/>
</svg>
