<svg width="39" height="39" viewBox="0 0 39 39" fill="none" xmlns="http://www.w3.org/2000/svg">
<circle cx="19.1231" cy="19.1231" r="19.1231" fill="#0C8BFD"/>
<path d="M18.99 18.9601H21.3075V24.3601C21.3075 25.1551 22.2975 25.5301 22.8225 24.9301L28.5 18.4801C28.995 17.9176 28.5975 17.0401 27.8475 17.0401H25.53V11.6401C25.53 10.8451 24.54 10.4701 24.015 11.0701L18.3375 17.5201C17.85 18.0826 18.2475 18.9601 18.99 18.9601Z" fill="white"/>
<path d="M18.375 12.5625H13.125C12.8175 12.5625 12.5625 12.3075 12.5625 12C12.5625 11.6925 12.8175 11.4375 13.125 11.4375H18.375C18.6825 11.4375 18.9375 11.6925 18.9375 12C18.9375 12.3075 18.6825 12.5625 18.375 12.5625Z" fill="#6DB9FE"/>
<path d="M17.625 24.5625H13.125C12.8175 24.5625 12.5625 24.3075 12.5625 24C12.5625 23.6925 12.8175 23.4375 13.125 23.4375H17.625C17.9325 23.4375 18.1875 23.6925 18.1875 24C18.1875 24.3075 17.9325 24.5625 17.625 24.5625Z" fill="#6DB9FE"/>
<path d="M15.375 18.5625H13.125C12.8175 18.5625 12.5625 18.3075 12.5625 18C12.5625 17.6925 12.8175 17.4375 13.125 17.4375H15.375C15.6825 17.4375 15.9375 17.6925 15.9375 18C15.9375 18.3075 15.6825 18.5625 15.375 18.5625Z" fill="#6DB9FE"/>
</svg>
