<svg width="41" height="14" viewBox="0 0 41 14" fill="none" xmlns="http://www.w3.org/2000/svg">
<path d="M0.704545 11V5.18182H4.21591V5.80682H1.40909V7.77273H4.03409V8.39773H1.40909V10.375H4.26136V11H0.704545ZM7.04261 11.0909C6.67898 11.0909 6.35795 10.9991 6.07955 10.8153C5.80114 10.6297 5.58333 10.3684 5.42614 10.0312C5.26894 9.69223 5.19034 9.29167 5.19034 8.82955C5.19034 8.37121 5.26894 7.97348 5.42614 7.63636C5.58333 7.29924 5.80208 7.03883 6.08239 6.85511C6.36269 6.6714 6.68655 6.57955 7.05398 6.57955C7.33807 6.57955 7.5625 6.62689 7.72727 6.72159C7.89394 6.81439 8.02083 6.92045 8.10795 7.03977C8.19697 7.1572 8.2661 7.25379 8.31534 7.32955H8.37216V5.18182H9.04261V11H8.39489V10.3295H8.31534C8.2661 10.4091 8.19602 10.5095 8.10511 10.6307C8.0142 10.75 7.88447 10.857 7.71591 10.9517C7.54735 11.0445 7.32292 11.0909 7.04261 11.0909ZM7.13352 10.4886C7.40246 10.4886 7.62973 10.4186 7.81534 10.2784C8.00095 10.1364 8.14205 9.94034 8.23864 9.69034C8.33523 9.43845 8.38352 9.14773 8.38352 8.81818C8.38352 8.49242 8.33617 8.20739 8.24148 7.96307C8.14678 7.71686 8.00663 7.52557 7.82102 7.3892C7.63542 7.25095 7.40625 7.18182 7.13352 7.18182C6.84943 7.18182 6.61269 7.25473 6.4233 7.40057C6.2358 7.54451 6.0947 7.74053 6 7.98864C5.9072 8.23485 5.8608 8.51136 5.8608 8.81818C5.8608 9.12879 5.90814 9.41098 6.00284 9.66477C6.09943 9.91667 6.24148 10.1174 6.42898 10.267C6.61837 10.4148 6.85322 10.4886 7.13352 10.4886ZM10.3636 11V6.63636H11.0341V11H10.3636ZM10.7045 5.90909C10.5739 5.90909 10.4612 5.86458 10.3665 5.77557C10.2737 5.68655 10.2273 5.57955 10.2273 5.45455C10.2273 5.32955 10.2737 5.22254 10.3665 5.13352C10.4612 5.04451 10.5739 5 10.7045 5C10.8352 5 10.947 5.04451 11.0398 5.13352C11.1345 5.22254 11.1818 5.32955 11.1818 5.45455C11.1818 5.57955 11.1345 5.68655 11.0398 5.77557C10.947 5.86458 10.8352 5.90909 10.7045 5.90909ZM14.1598 6.63636V7.20455H11.8984V6.63636H14.1598ZM12.5575 5.59091H13.228V9.75C13.228 9.93939 13.2554 10.0814 13.3104 10.1761C13.3672 10.2689 13.4392 10.3314 13.5263 10.3636C13.6153 10.3939 13.709 10.4091 13.8075 10.4091C13.8814 10.4091 13.942 10.4053 13.9893 10.3977C14.0367 10.3883 14.0746 10.3807 14.103 10.375L14.2393 10.9773C14.1939 10.9943 14.1304 11.0114 14.049 11.0284C13.9676 11.0473 13.8643 11.0568 13.7393 11.0568C13.55 11.0568 13.3643 11.0161 13.1825 10.9347C13.0026 10.8532 12.853 10.7292 12.7337 10.5625C12.6162 10.3958 12.5575 10.1856 12.5575 9.93182V5.59091ZM16.4524 11.1023C16.1759 11.1023 15.925 11.0502 15.6996 10.946C15.4742 10.84 15.2952 10.6875 15.1626 10.4886C15.0301 10.2879 14.9638 10.0455 14.9638 9.76136C14.9638 9.51136 15.013 9.30871 15.1115 9.15341C15.21 8.99621 15.3416 8.87311 15.5064 8.78409C15.6712 8.69508 15.853 8.62879 16.0518 8.58523C16.2526 8.53977 16.4543 8.50379 16.657 8.47727C16.9221 8.44318 17.1371 8.41761 17.3018 8.40057C17.4685 8.38163 17.5897 8.35038 17.6655 8.30682C17.7431 8.26326 17.782 8.1875 17.782 8.07955V8.05682C17.782 7.77652 17.7053 7.55871 17.5518 7.40341C17.4003 7.24811 17.1702 7.17045 16.8615 7.17045C16.5414 7.17045 16.2905 7.24053 16.1087 7.38068C15.9268 7.52083 15.799 7.67045 15.7251 7.82955L15.0888 7.60227C15.2024 7.33712 15.3539 7.13068 15.5433 6.98295C15.7346 6.83333 15.9429 6.72917 16.1683 6.67045C16.3956 6.60985 16.6191 6.57955 16.8388 6.57955C16.9789 6.57955 17.1399 6.59659 17.3217 6.63068C17.5054 6.66288 17.6825 6.73011 17.853 6.83239C18.0253 6.93466 18.1683 7.08902 18.282 7.29545C18.3956 7.50189 18.4524 7.77841 18.4524 8.125V11H17.782V10.4091H17.7479C17.7024 10.5038 17.6267 10.6051 17.5206 10.7131C17.4145 10.821 17.2734 10.9129 17.0973 10.9886C16.9212 11.0644 16.7062 11.1023 16.4524 11.1023ZM16.5547 10.5C16.8198 10.5 17.0433 10.4479 17.2251 10.3438C17.4089 10.2396 17.5471 10.1051 17.6399 9.94034C17.7346 9.77557 17.782 9.60227 17.782 9.42045V8.80682C17.7536 8.84091 17.6911 8.87216 17.5945 8.90057C17.4998 8.92708 17.3899 8.95076 17.2649 8.97159C17.1418 8.99053 17.0215 9.00758 16.9041 9.02273C16.7886 9.03598 16.6948 9.04735 16.6229 9.05682C16.4486 9.07955 16.2857 9.11648 16.1342 9.16761C15.9846 9.21686 15.8634 9.29167 15.7706 9.39205C15.6797 9.49053 15.6342 9.625 15.6342 9.79545C15.6342 10.0284 15.7204 10.2045 15.8928 10.3239C16.067 10.4413 16.2876 10.5 16.5547 10.5ZM19.6761 11V6.63636H20.3239V7.29545H20.3693C20.4489 7.07955 20.5928 6.90436 20.8011 6.76989C21.0095 6.63542 21.2443 6.56818 21.5057 6.56818C21.5549 6.56818 21.6165 6.56913 21.6903 6.57102C21.7642 6.57292 21.8201 6.57576 21.858 6.57955V7.26136C21.8352 7.25568 21.7831 7.24716 21.7017 7.2358C21.6222 7.22254 21.5379 7.21591 21.4489 7.21591C21.2367 7.21591 21.0473 7.26042 20.8807 7.34943C20.7159 7.43655 20.5852 7.55777 20.4886 7.71307C20.3939 7.86648 20.3466 8.04167 20.3466 8.23864V11H19.6761Z" fill="#717171"/>
<path d="M36.8716 2.43182L37.9512 1.35151C38.1763 1.12644 38.4816 1 38.7999 1C39.1182 1 39.4234 1.12644 39.6485 1.35151C39.8736 1.57658 40 1.88184 40 2.20014C40 2.51844 39.8736 2.8237 39.6485 3.04877L32.8524 9.84484C32.5141 10.183 32.0968 10.4315 31.6384 10.568L29.92 11.08L30.432 9.36165C30.5685 8.90318 30.817 8.48593 31.1552 8.14758L36.8716 2.43182ZM36.8716 2.43182L38.5599 4.12012M37.5999 8.52006V11.56C37.5999 11.9419 37.4482 12.3082 37.1781 12.5782C36.9081 12.8483 36.5418 13 36.1599 13H29.44C29.0581 13 28.6918 12.8483 28.4218 12.5782C28.1517 12.3082 28 11.9419 28 11.56V4.84011C28 4.4582 28.1517 4.09194 28.4218 3.82189C28.6918 3.55184 29.0581 3.40013 29.44 3.40013H32.4799" stroke="#717171" stroke-linecap="round" stroke-linejoin="round"/>
</svg>
