<svg width="43" height="43" viewBox="0 0 43 43" fill="none" xmlns="http://www.w3.org/2000/svg">
<rect width="42.3754" height="42.3754" rx="6" fill="#93E8BF"/>
<path fill-rule="evenodd" clip-rule="evenodd" d="M11.3772 25.9166V28.1904C11.3772 30.703 13.5059 32.738 16.1315 32.738H28.0173C30.644 32.738 32.7716 30.703 32.7716 28.1904C32.7716 24.4057 32.7716 18.3335 32.7716 14.5476C32.7716 12.0362 30.644 10 28.0173 10C24.6191 10 19.5308 10 16.1315 10C13.5059 10 11.3772 12.0362 11.3772 14.5476V16.8214C11.3772 17.449 11.9096 17.9583 12.5657 17.9583C13.2218 17.9583 13.7543 17.449 13.7543 16.8214C13.7543 16.8214 13.7543 15.7561 13.7543 14.5476C13.7543 13.2925 14.8193 12.2738 16.1315 12.2738H28.0173C29.3306 12.2738 30.3944 13.2925 30.3944 14.5476V28.1904C30.3944 29.4467 29.3306 30.4642 28.0173 30.4642C24.6191 30.4642 19.5308 30.4642 16.1315 30.4642C14.8193 30.4642 13.7543 29.4467 13.7543 28.1904C13.7543 26.983 13.7543 25.9166 13.7543 25.9166C13.7543 25.2902 13.2218 24.7797 12.5657 24.7797C11.9096 24.7797 11.3772 25.2902 11.3772 25.9166ZM20.3937 20.2321L18.8569 18.7632C18.3933 18.3187 18.3933 17.599 18.8569 17.1545C19.3216 16.7111 20.074 16.7111 20.5375 17.1545L24.1033 20.5652C24.568 21.0097 24.568 21.7294 24.1033 22.1739L20.5375 25.5846C20.074 26.028 19.3216 26.028 18.8569 25.5846C18.3933 25.1401 18.3933 24.4204 18.8569 23.9759L20.3937 22.5059H10.1886C9.53248 22.5059 9 21.9966 9 21.369C9 20.7426 9.53248 20.2321 10.1886 20.2321H20.3937Z" fill="white"/>
</svg>
