<svg width="16" height="16" viewBox="0 0 16 16" fill="none" xmlns="http://www.w3.org/2000/svg">
<path d="M6.0003 1H2.71295C2.25865 1 1.82295 1.18047 1.50171 1.50171C1.18047 1.82295 1 2.25865 1 2.71295V6.0003C1 6.4548 1.18043 6.89104 1.5017 7.21155L8.79584 14.5057C9.328 15.0378 10.151 15.1695 10.7806 14.7569C12.3653 13.719 13.719 12.3653 14.7569 10.7806C15.1695 10.151 15.0378 9.328 14.5057 8.79584L7.21231 1.50247C7.05322 1.34318 6.86429 1.21681 6.65632 1.13059C6.44835 1.04437 6.22543 0.999998 6.0003 1Z" stroke="#717171" stroke-linecap="round" stroke-linejoin="round"/>
<path d="M4 4H4.008V4.008H4V4Z" stroke="#717171" stroke-width="1.5" stroke-linecap="round" stroke-linejoin="round"/>
</svg>
