<svg width="16" height="16" viewBox="0 0 16 16" fill="none" xmlns="http://www.w3.org/2000/svg">
<path d="M3.91667 1V2.75M12.0833 1V2.75M1 13.25V4.5C1 4.03587 1.18437 3.59075 1.51256 3.26256C1.84075 2.93437 2.28587 2.75 2.75 2.75H13.25C13.7141 2.75 14.1592 2.93437 14.4874 3.26256C14.8156 3.59075 15 4.03587 15 4.5V13.25M1 13.25C1 13.7141 1.18437 14.1592 1.51256 14.4874C1.84075 14.8156 2.28587 15 2.75 15H13.25C13.7141 15 14.1592 14.8156 14.4874 14.4874C14.8156 14.1592 15 13.7141 15 13.25M1 13.25V7.41667C1 6.95254 1.18437 6.50742 1.51256 6.17923C1.84075 5.85104 2.28587 5.66667 2.75 5.66667H13.25C13.7141 5.66667 14.1592 5.85104 14.4874 6.17923C14.8156 6.50742 15 6.95254 15 7.41667V13.25M8 8.58333H8.00622V8.58956H8V8.58333ZM8 10.3333H8.00622V10.3396H8V10.3333ZM8 12.0833H8.00622V12.0896H8V12.0833ZM6.25 10.3333H6.25622V10.3396H6.25V10.3333ZM6.25 12.0833H6.25622V12.0896H6.25V12.0833ZM4.5 10.3333H4.50622V10.3396H4.5V10.3333ZM4.5 12.0833H4.50622V12.0896H4.5V12.0833ZM9.75 8.58333H9.75622V8.58956H9.75V8.58333ZM9.75 10.3333H9.75622V10.3396H9.75V10.3333ZM9.75 12.0833H9.75622V12.0896H9.75V12.0833ZM11.5 8.58333H11.5062V8.58956H11.5V8.58333ZM11.5 10.3333H11.5062V10.3396H11.5V10.3333Z" stroke="#717171" stroke-linecap="round" stroke-linejoin="round"/>
</svg>
