<svg width="16" height="16" viewBox="0 0 16 16" fill="none" xmlns="http://www.w3.org/2000/svg">
<path d="M15.83 8.09201C15.7878 8.19473 15.7161 8.28267 15.624 8.34473C15.5319 8.40679 15.4235 8.44021 15.3125 8.44076H13.625V14.0658C13.625 14.5133 13.4472 14.9425 13.1307 15.259C12.8142 15.5755 12.385 15.7533 11.9375 15.7533H9.68746C9.53827 15.7533 9.3952 15.694 9.28971 15.5885C9.18422 15.483 9.12496 15.3399 9.12496 15.1908V11.8158C9.12496 11.6666 9.06569 11.5235 8.9602 11.418C8.85471 11.3125 8.71164 11.2533 8.56246 11.2533H7.43746C7.28827 11.2533 7.1452 11.3125 7.03971 11.418C6.93422 11.5235 6.87496 11.6666 6.87496 11.8158V15.1908C6.87496 15.3399 6.81569 15.483 6.7102 15.5885C6.60471 15.694 6.46164 15.7533 6.31246 15.7533H4.06246C3.6149 15.7533 3.18568 15.5755 2.86921 15.259C2.55275 14.9425 2.37496 14.5133 2.37496 14.0658V8.44076H0.687456C0.576405 8.44021 0.468002 8.40679 0.375909 8.34473C0.283816 8.28267 0.212155 8.19473 0.169956 8.09201C0.12688 7.98957 0.115111 7.87667 0.136134 7.76755C0.157157 7.65843 0.21003 7.55799 0.288081 7.47889L7.60058 0.166387C7.65287 0.113664 7.71509 0.0718175 7.78363 0.0432601C7.85218 0.0147028 7.9257 0 7.99996 0C8.07421 0 8.14774 0.0147028 8.21628 0.0432601C8.28483 0.0718175 8.34704 0.113664 8.39933 0.166387L15.7118 7.47889C15.7899 7.55799 15.8428 7.65843 15.8638 7.76755C15.8848 7.87667 15.873 7.98957 15.83 8.09201Z" fill="white"/>
</svg>
