<svg width="18" height="17" viewBox="0 0 18 17" fill="none" xmlns="http://www.w3.org/2000/svg">
<path d="M6 0H3C1.75736 0 0.75 1.00736 0.75 2.25V14.1562C0.75 15.3989 1.75736 16.4062 3 16.4062H6C7.24264 16.4062 8.25 15.3989 8.25 14.1562V2.25C8.25 1.00736 7.24264 0 6 0Z" fill="#B5B5B5"/>
<path d="M15 0H12C10.7574 0 9.75 1.00736 9.75 2.25V5.25C9.75 6.49264 10.7574 7.5 12 7.5H15C16.2426 7.5 17.25 6.49264 17.25 5.25V2.25C17.25 1.00736 16.2426 0 15 0Z" fill="#B5B5B5"/>
<path d="M15 9H12C10.7574 9 9.75 10.0074 9.75 11.25V14.25C9.75 15.4926 10.7574 16.5 12 16.5H15C16.2426 16.5 17.25 15.4926 17.25 14.25V11.25C17.25 10.0074 16.2426 9 15 9Z" fill="#B5B5B5"/>
</svg>
