<svg width="17" height="17" viewBox="0 0 17 17" fill="none" xmlns="http://www.w3.org/2000/svg">
<path d="M13.25 0H4.25C3.2558 0.00119089 2.30267 0.396661 1.59966 1.09966C0.896661 1.80267 0.501191 2.7558 0.5 3.75V9.75C0.501091 10.6142 0.800068 11.4515 1.34654 12.1209C1.89301 12.7904 2.65356 13.2509 3.5 13.425V15.75C3.49998 15.8858 3.53682 16.019 3.60659 16.1355C3.67637 16.252 3.77645 16.3473 3.89618 16.4114C4.0159 16.4755 4.15077 16.5058 4.28639 16.4992C4.42201 16.4926 4.5533 16.4494 4.66625 16.374L8.975 13.5H13.25C14.2442 13.4988 15.1973 13.1033 15.9003 12.4003C16.6033 11.6973 16.9988 10.7442 17 9.75V3.75C16.9988 2.7558 16.6033 1.80267 15.9003 1.09966C15.1973 0.396661 14.2442 0.00119089 13.25 0ZM11.75 9H5.75C5.55109 9 5.36032 8.92098 5.21967 8.78033C5.07902 8.63968 5 8.44891 5 8.25C5 8.05109 5.07902 7.86032 5.21967 7.71967C5.36032 7.57902 5.55109 7.5 5.75 7.5H11.75C11.9489 7.5 12.1397 7.57902 12.2803 7.71967C12.421 7.86032 12.5 8.05109 12.5 8.25C12.5 8.44891 12.421 8.63968 12.2803 8.78033C12.1397 8.92098 11.9489 9 11.75 9ZM13.25 6H4.25C4.05109 6 3.86032 5.92098 3.71967 5.78033C3.57902 5.63968 3.5 5.44891 3.5 5.25C3.5 5.05109 3.57902 4.86032 3.71967 4.71967C3.86032 4.57902 4.05109 4.5 4.25 4.5H13.25C13.4489 4.5 13.6397 4.57902 13.7803 4.71967C13.921 4.86032 14 5.05109 14 5.25C14 5.44891 13.921 5.63968 13.7803 5.78033C13.6397 5.92098 13.4489 6 13.25 6Z" fill="#B5B5B5"/>
</svg>
