<svg width="270" height="75" viewBox="0 0 270 75" fill="none" xmlns="http://www.w3.org/2000/svg">
<path d="M107.824 47.9091V49.9545H100.673V47.9091H107.824ZM102.591 44.7727H105.139V57.1562C105.139 57.6506 105.213 58.0227 105.361 58.2727C105.509 58.517 105.699 58.6847 105.932 58.7756C106.17 58.8608 106.429 58.9034 106.707 58.9034C106.912 58.9034 107.091 58.8892 107.244 58.8608C107.398 58.8324 107.517 58.8097 107.602 58.7926L108.062 60.8977C107.915 60.9545 107.705 61.0114 107.432 61.0682C107.159 61.1307 106.818 61.1648 106.409 61.1705C105.739 61.1818 105.114 61.0625 104.534 60.8125C103.955 60.5625 103.486 60.1761 103.128 59.6534C102.77 59.1307 102.591 58.4744 102.591 57.6847V44.7727ZM114.452 61.2898C113.623 61.2898 112.873 61.1364 112.202 60.8295C111.532 60.517 111.001 60.0653 110.609 59.4744C110.222 58.8835 110.029 58.1591 110.029 57.3011C110.029 56.5625 110.171 55.9545 110.455 55.4773C110.739 55 111.123 54.6222 111.606 54.3438C112.089 54.0653 112.629 53.8551 113.225 53.7131C113.822 53.571 114.43 53.4631 115.049 53.3892C115.833 53.2983 116.469 53.2244 116.958 53.1676C117.447 53.1051 117.802 53.0057 118.023 52.8693C118.245 52.733 118.356 52.5114 118.356 52.2045V52.1449C118.356 51.4006 118.146 50.8239 117.725 50.4148C117.31 50.0057 116.691 49.8011 115.867 49.8011C115.009 49.8011 114.333 49.9915 113.839 50.3722C113.35 50.7472 113.012 51.1648 112.825 51.625L110.43 51.0795C110.714 50.2841 111.129 49.642 111.674 49.1534C112.225 48.6591 112.859 48.3011 113.575 48.0795C114.29 47.8523 115.043 47.7386 115.833 47.7386C116.356 47.7386 116.91 47.8011 117.495 47.9261C118.086 48.0455 118.637 48.267 119.148 48.5909C119.665 48.9148 120.089 49.3778 120.418 49.9801C120.748 50.5767 120.913 51.3523 120.913 52.3068V61H118.424V59.2102H118.322C118.157 59.5398 117.91 59.8636 117.58 60.1818C117.251 60.5 116.827 60.7642 116.31 60.9744C115.793 61.1847 115.174 61.2898 114.452 61.2898ZM115.006 59.2443C115.711 59.2443 116.313 59.1051 116.813 58.8267C117.319 58.5483 117.702 58.1847 117.964 57.7358C118.231 57.2812 118.364 56.7955 118.364 56.2784V54.5909C118.273 54.6818 118.097 54.767 117.836 54.8466C117.58 54.9205 117.288 54.9858 116.958 55.0426C116.629 55.0937 116.308 55.142 115.995 55.1875C115.683 55.2273 115.421 55.2614 115.211 55.2898C114.717 55.3523 114.265 55.4574 113.856 55.6051C113.452 55.7528 113.129 55.9659 112.884 56.2443C112.646 56.517 112.526 56.8807 112.526 57.3352C112.526 57.9659 112.759 58.4432 113.225 58.767C113.691 59.0852 114.285 59.2443 115.006 59.2443ZM124.307 61V47.9091H126.77V49.9886H126.906C127.145 49.2841 127.565 48.7301 128.168 48.3267C128.776 47.9176 129.463 47.7131 130.23 47.7131C130.389 47.7131 130.577 47.7187 130.793 47.7301C131.014 47.7415 131.188 47.7557 131.312 47.7727V50.2102C131.21 50.1818 131.028 50.1506 130.767 50.1165C130.506 50.0767 130.244 50.0568 129.983 50.0568C129.381 50.0568 128.844 50.1847 128.372 50.4403C127.906 50.6903 127.537 51.0398 127.264 51.4886C126.991 51.9318 126.855 52.4375 126.855 53.0057V61H124.307ZM138.691 61.2642C137.401 61.2642 136.29 60.9886 135.359 60.4375C134.433 59.8807 133.717 59.0994 133.211 58.0938C132.711 57.0824 132.461 55.8977 132.461 54.5398C132.461 53.1989 132.711 52.017 133.211 50.9943C133.717 49.9716 134.421 49.1733 135.325 48.5994C136.234 48.0256 137.296 47.7386 138.512 47.7386C139.251 47.7386 139.967 47.8608 140.66 48.1051C141.353 48.3494 141.975 48.733 142.526 49.2557C143.077 49.7784 143.512 50.4574 143.83 51.2926C144.148 52.1222 144.308 53.1307 144.308 54.3182V55.2216H133.901V53.3125H141.81C141.81 52.642 141.674 52.0483 141.401 51.5312C141.129 51.0085 140.745 50.5966 140.251 50.2955C139.762 49.9943 139.188 49.8438 138.529 49.8438C137.813 49.8438 137.188 50.0199 136.654 50.3722C136.126 50.7187 135.717 51.1733 135.427 51.7358C135.143 52.2926 135.001 52.8977 135.001 53.5511V55.0426C135.001 55.9176 135.154 56.6619 135.461 57.2756C135.773 57.8892 136.208 58.358 136.765 58.6818C137.322 59 137.972 59.1591 138.717 59.1591C139.2 59.1591 139.64 59.0909 140.038 58.9545C140.435 58.8125 140.779 58.6023 141.069 58.3239C141.359 58.0455 141.58 57.7017 141.734 57.2926L144.146 57.7273C143.952 58.4375 143.606 59.0597 143.106 59.5938C142.612 60.1222 141.989 60.5341 141.239 60.8295C140.495 61.1193 139.646 61.2642 138.691 61.2642ZM150.945 61.2898C150.115 61.2898 149.365 61.1364 148.695 60.8295C148.024 60.517 147.493 60.0653 147.101 59.4744C146.714 58.8835 146.521 58.1591 146.521 57.3011C146.521 56.5625 146.663 55.9545 146.947 55.4773C147.232 55 147.615 54.6222 148.098 54.3438C148.581 54.0653 149.121 53.8551 149.717 53.7131C150.314 53.571 150.922 53.4631 151.541 53.3892C152.325 53.2983 152.962 53.2244 153.45 53.1676C153.939 53.1051 154.294 53.0057 154.516 52.8693C154.737 52.733 154.848 52.5114 154.848 52.2045V52.1449C154.848 51.4006 154.638 50.8239 154.217 50.4148C153.803 50.0057 153.183 49.8011 152.359 49.8011C151.501 49.8011 150.825 49.9915 150.331 50.3722C149.842 50.7472 149.504 51.1648 149.317 51.625L146.922 51.0795C147.206 50.2841 147.621 49.642 148.166 49.1534C148.717 48.6591 149.351 48.3011 150.067 48.0795C150.783 47.8523 151.536 47.7386 152.325 47.7386C152.848 47.7386 153.402 47.8011 153.987 47.9261C154.578 48.0455 155.129 48.267 155.641 48.5909C156.158 48.9148 156.581 49.3778 156.911 49.9801C157.24 50.5767 157.405 51.3523 157.405 52.3068V61H154.916V59.2102H154.814C154.649 59.5398 154.402 59.8636 154.072 60.1818C153.743 60.5 153.32 60.7642 152.803 60.9744C152.286 61.1847 151.666 61.2898 150.945 61.2898ZM151.499 59.2443C152.203 59.2443 152.805 59.1051 153.305 58.8267C153.811 58.5483 154.195 58.1847 154.456 57.7358C154.723 57.2812 154.857 56.7955 154.857 56.2784V54.5909C154.766 54.6818 154.589 54.767 154.328 54.8466C154.072 54.9205 153.78 54.9858 153.45 55.0426C153.121 55.0937 152.8 55.142 152.487 55.1875C152.175 55.2273 151.913 55.2614 151.703 55.2898C151.209 55.3523 150.757 55.4574 150.348 55.6051C149.945 55.7528 149.621 55.9659 149.376 56.2443C149.138 56.517 149.018 56.8807 149.018 57.3352C149.018 57.9659 149.251 58.4432 149.717 58.767C150.183 59.0852 150.777 59.2443 151.499 59.2443ZM170.609 51.1051L168.299 51.5142C168.202 51.2187 168.049 50.9375 167.839 50.6705C167.634 50.4034 167.356 50.1847 167.004 50.0142C166.651 49.8437 166.211 49.7585 165.683 49.7585C164.961 49.7585 164.359 49.9205 163.876 50.2443C163.393 50.5625 163.151 50.9744 163.151 51.4801C163.151 51.9176 163.313 52.2699 163.637 52.5369C163.961 52.804 164.484 53.0227 165.205 53.1932L167.285 53.6705C168.489 53.9489 169.387 54.3778 169.978 54.9574C170.569 55.5369 170.864 56.2898 170.864 57.2159C170.864 58 170.637 58.6989 170.183 59.3125C169.734 59.9205 169.106 60.3977 168.299 60.7443C167.498 61.0909 166.569 61.2642 165.512 61.2642C164.046 61.2642 162.85 60.9517 161.924 60.3267C160.998 59.696 160.43 58.8011 160.219 57.642L162.683 57.267C162.836 57.9091 163.151 58.3949 163.629 58.7244C164.106 59.0483 164.728 59.2102 165.495 59.2102C166.33 59.2102 166.998 59.0369 167.498 58.6903C167.998 58.3381 168.248 57.9091 168.248 57.4034C168.248 56.9943 168.094 56.6506 167.788 56.3722C167.487 56.0937 167.023 55.8835 166.398 55.7415L164.183 55.2557C162.961 54.9773 162.058 54.5341 161.472 53.9261C160.893 53.3182 160.603 52.5483 160.603 51.6165C160.603 50.8437 160.819 50.1676 161.251 49.5881C161.683 49.0085 162.279 48.5568 163.04 48.233C163.802 47.9034 164.674 47.7386 165.657 47.7386C167.072 47.7386 168.185 48.0455 168.998 48.6591C169.81 49.267 170.347 50.0824 170.609 51.1051ZM185.532 61.2642C184.265 61.2642 183.174 60.9773 182.259 60.4034C181.35 59.8239 180.651 59.0256 180.163 58.0085C179.674 56.9915 179.43 55.8267 179.43 54.5142C179.43 53.1847 179.68 52.0114 180.18 50.9943C180.68 49.9716 181.384 49.1733 182.293 48.5994C183.202 48.0256 184.273 47.7386 185.506 47.7386C186.501 47.7386 187.387 47.9233 188.165 48.2926C188.944 48.6562 189.572 49.1676 190.049 49.8267C190.532 50.4858 190.819 51.2557 190.91 52.1364H188.43C188.293 51.5227 187.981 50.9943 187.492 50.5511C187.009 50.108 186.362 49.8864 185.549 49.8864C184.839 49.8864 184.217 50.0739 183.683 50.4489C183.154 50.8182 182.742 51.3466 182.447 52.0341C182.151 52.7159 182.004 53.5227 182.004 54.4545C182.004 55.4091 182.148 56.233 182.438 56.9261C182.728 57.6193 183.137 58.1562 183.665 58.5369C184.2 58.9176 184.827 59.108 185.549 59.108C186.032 59.108 186.469 59.0199 186.862 58.8438C187.259 58.6619 187.592 58.4034 187.859 58.0682C188.131 57.733 188.322 57.3295 188.43 56.858H190.91C190.819 57.7045 190.543 58.4602 190.083 59.125C189.623 59.7898 189.006 60.3125 188.234 60.6932C187.467 61.0739 186.566 61.2642 185.532 61.2642ZM193.635 61V47.9091H196.098V49.9886H196.234C196.473 49.2841 196.893 48.7301 197.496 48.3267C198.104 47.9176 198.791 47.7131 199.558 47.7131C199.717 47.7131 199.905 47.7187 200.121 47.7301C200.342 47.7415 200.516 47.7557 200.641 47.7727V50.2102C200.538 50.1818 200.357 50.1506 200.095 50.1165C199.834 50.0767 199.572 50.0568 199.311 50.0568C198.709 50.0568 198.172 50.1847 197.7 50.4403C197.234 50.6903 196.865 51.0398 196.592 51.4886C196.32 51.9318 196.183 52.4375 196.183 53.0057V61H193.635ZM208.019 61.2642C206.729 61.2642 205.619 60.9886 204.687 60.4375C203.761 59.8807 203.045 59.0994 202.539 58.0938C202.039 57.0824 201.789 55.8977 201.789 54.5398C201.789 53.1989 202.039 52.017 202.539 50.9943C203.045 49.9716 203.749 49.1733 204.653 48.5994C205.562 48.0256 206.624 47.7386 207.84 47.7386C208.579 47.7386 209.295 47.8608 209.988 48.1051C210.681 48.3494 211.303 48.733 211.854 49.2557C212.406 49.7784 212.84 50.4574 213.158 51.2926C213.477 52.1222 213.636 53.1307 213.636 54.3182V55.2216H203.229V53.3125H211.138C211.138 52.642 211.002 52.0483 210.729 51.5312C210.457 51.0085 210.073 50.5966 209.579 50.2955C209.09 49.9943 208.516 49.8438 207.857 49.8438C207.141 49.8438 206.516 50.0199 205.982 50.3722C205.454 50.7187 205.045 51.1733 204.755 51.7358C204.471 52.2926 204.329 52.8977 204.329 53.5511V55.0426C204.329 55.9176 204.482 56.6619 204.789 57.2756C205.102 57.8892 205.536 58.358 206.093 58.6818C206.65 59 207.3 59.1591 208.045 59.1591C208.528 59.1591 208.968 59.0909 209.366 58.9545C209.763 58.8125 210.107 58.6023 210.397 58.3239C210.687 58.0455 210.908 57.7017 211.062 57.2926L213.474 57.7273C213.281 58.4375 212.934 59.0597 212.434 59.5938C211.94 60.1222 211.317 60.5341 210.567 60.8295C209.823 61.1193 208.974 61.2642 208.019 61.2642ZM220.273 61.2898C219.443 61.2898 218.693 61.1364 218.023 60.8295C217.352 60.517 216.821 60.0653 216.429 59.4744C216.043 58.8835 215.849 58.1591 215.849 57.3011C215.849 56.5625 215.991 55.9545 216.276 55.4773C216.56 55 216.943 54.6222 217.426 54.3438C217.909 54.0653 218.449 53.8551 219.045 53.7131C219.642 53.571 220.25 53.4631 220.869 53.3892C221.653 53.2983 222.29 53.2244 222.778 53.1676C223.267 53.1051 223.622 53.0057 223.844 52.8693C224.065 52.733 224.176 52.5114 224.176 52.2045V52.1449C224.176 51.4006 223.966 50.8239 223.545 50.4148C223.131 50.0057 222.511 49.8011 221.688 49.8011C220.83 49.8011 220.153 49.9915 219.659 50.3722C219.17 50.7472 218.832 51.1648 218.645 51.625L216.25 51.0795C216.534 50.2841 216.949 49.642 217.494 49.1534C218.045 48.6591 218.679 48.3011 219.395 48.0795C220.111 47.8523 220.864 47.7386 221.653 47.7386C222.176 47.7386 222.73 47.8011 223.315 47.9261C223.906 48.0455 224.457 48.267 224.969 48.5909C225.486 48.9148 225.909 49.3778 226.239 49.9801C226.568 50.5767 226.733 51.3523 226.733 52.3068V61H224.244V59.2102H224.142C223.977 59.5398 223.73 59.8636 223.401 60.1818C223.071 60.5 222.648 60.7642 222.131 60.9744C221.614 61.1847 220.994 61.2898 220.273 61.2898ZM220.827 59.2443C221.531 59.2443 222.134 59.1051 222.634 58.8267C223.139 58.5483 223.523 58.1847 223.784 57.7358C224.051 57.2812 224.185 56.7955 224.185 56.2784V54.5909C224.094 54.6818 223.918 54.767 223.656 54.8466C223.401 54.9205 223.108 54.9858 222.778 55.0426C222.449 55.0937 222.128 55.142 221.815 55.1875C221.503 55.2273 221.241 55.2614 221.031 55.2898C220.537 55.3523 220.085 55.4574 219.676 55.6051C219.273 55.7528 218.949 55.9659 218.705 56.2443C218.466 56.517 218.347 56.8807 218.347 57.3352C218.347 57.9659 218.58 58.4432 219.045 58.767C219.511 59.0852 220.105 59.2443 220.827 59.2443ZM235.028 61.2557C233.971 61.2557 233.028 60.9858 232.198 60.446C231.374 59.9006 230.727 59.125 230.255 58.1193C229.789 57.108 229.556 55.8949 229.556 54.4801C229.556 53.0653 229.792 51.8551 230.263 50.8494C230.741 49.8437 231.394 49.0739 232.224 48.5398C233.053 48.0057 233.994 47.7386 235.045 47.7386C235.857 47.7386 236.511 47.875 237.005 48.1477C237.505 48.4148 237.891 48.7273 238.164 49.0852C238.442 49.4432 238.658 49.7585 238.812 50.0312H238.965V43.5455H241.513V61H239.025V58.9631H238.812C238.658 59.2415 238.437 59.5597 238.147 59.9176C237.863 60.2756 237.471 60.5881 236.971 60.8551C236.471 61.1222 235.823 61.2557 235.028 61.2557ZM235.59 59.0824C236.323 59.0824 236.942 58.8892 237.448 58.5028C237.96 58.1108 238.346 57.5682 238.607 56.875C238.874 56.1818 239.008 55.375 239.008 54.4545C239.008 53.5455 238.877 52.75 238.616 52.0682C238.354 51.3864 237.971 50.8551 237.465 50.4744C236.96 50.0937 236.335 49.9034 235.59 49.9034C234.823 49.9034 234.184 50.1023 233.673 50.5C233.161 50.8977 232.775 51.4403 232.513 52.1278C232.258 52.8153 232.13 53.5909 232.13 54.4545C232.13 55.3295 232.261 56.1165 232.522 56.8153C232.783 57.5142 233.17 58.0682 233.681 58.4773C234.198 58.8807 234.835 59.0824 235.59 59.0824ZM248.96 61.2898C248.131 61.2898 247.381 61.1364 246.71 60.8295C246.04 60.517 245.509 60.0653 245.116 59.4744C244.73 58.8835 244.537 58.1591 244.537 57.3011C244.537 56.5625 244.679 55.9545 244.963 55.4773C245.247 55 245.631 54.6222 246.114 54.3438C246.597 54.0653 247.136 53.8551 247.733 53.7131C248.33 53.571 248.938 53.4631 249.557 53.3892C250.341 53.2983 250.977 53.2244 251.466 53.1676C251.955 53.1051 252.31 53.0057 252.531 52.8693C252.753 52.733 252.864 52.5114 252.864 52.2045V52.1449C252.864 51.4006 252.653 50.8239 252.233 50.4148C251.818 50.0057 251.199 49.8011 250.375 49.8011C249.517 49.8011 248.841 49.9915 248.347 50.3722C247.858 50.7472 247.52 51.1648 247.332 51.625L244.938 51.0795C245.222 50.2841 245.636 49.642 246.182 49.1534C246.733 48.6591 247.366 48.3011 248.082 48.0795C248.798 47.8523 249.551 47.7386 250.341 47.7386C250.864 47.7386 251.418 47.8011 252.003 47.9261C252.594 48.0455 253.145 48.267 253.656 48.5909C254.173 48.9148 254.597 49.3778 254.926 49.9801C255.256 50.5767 255.42 51.3523 255.42 52.3068V61H252.932V59.2102H252.83C252.665 59.5398 252.418 59.8636 252.088 60.1818C251.759 60.5 251.335 60.7642 250.818 60.9744C250.301 61.1847 249.682 61.2898 248.96 61.2898ZM249.514 59.2443C250.219 59.2443 250.821 59.1051 251.321 58.8267C251.827 58.5483 252.21 58.1847 252.472 57.7358C252.739 57.2812 252.872 56.7955 252.872 56.2784V54.5909C252.781 54.6818 252.605 54.767 252.344 54.8466C252.088 54.9205 251.795 54.9858 251.466 55.0426C251.136 55.0937 250.815 55.142 250.503 55.1875C250.19 55.2273 249.929 55.2614 249.719 55.2898C249.224 55.3523 248.773 55.4574 248.364 55.6051C247.96 55.7528 247.636 55.9659 247.392 56.2443C247.153 56.517 247.034 56.8807 247.034 57.3352C247.034 57.9659 247.267 58.4432 247.733 58.767C248.199 59.0852 248.793 59.2443 249.514 59.2443ZM268.624 51.1051L266.315 51.5142C266.218 51.2187 266.065 50.9375 265.854 50.6705C265.65 50.4034 265.371 50.1847 265.019 50.0142C264.667 49.8437 264.227 49.7585 263.698 49.7585C262.977 49.7585 262.374 49.9205 261.891 50.2443C261.408 50.5625 261.167 50.9744 261.167 51.4801C261.167 51.9176 261.329 52.2699 261.653 52.5369C261.977 52.804 262.499 53.0227 263.221 53.1932L265.3 53.6705C266.505 53.9489 267.403 54.3778 267.994 54.9574C268.585 55.5369 268.88 56.2898 268.88 57.2159C268.88 58 268.653 58.6989 268.198 59.3125C267.749 59.9205 267.121 60.3977 266.315 60.7443C265.513 61.0909 264.585 61.2642 263.528 61.2642C262.062 61.2642 260.866 60.9517 259.94 60.3267C259.013 59.696 258.445 58.8011 258.235 57.642L260.698 57.267C260.852 57.9091 261.167 58.3949 261.644 58.7244C262.121 59.0483 262.744 59.2102 263.511 59.2102C264.346 59.2102 265.013 59.0369 265.513 58.6903C266.013 58.3381 266.263 57.9091 266.263 57.4034C266.263 56.9943 266.11 56.6506 265.803 56.3722C265.502 56.0937 265.039 55.8835 264.414 55.7415L262.198 55.2557C260.977 54.9773 260.073 54.5341 259.488 53.9261C258.908 53.3182 258.619 52.5483 258.619 51.6165C258.619 50.8437 258.835 50.1676 259.266 49.5881C259.698 49.0085 260.295 48.5568 261.056 48.233C261.817 47.9034 262.69 47.7386 263.673 47.7386C265.087 47.7386 266.201 48.0455 267.013 48.6591C267.826 49.267 268.363 50.0824 268.624 51.1051Z" fill="#717171"/>
<path d="M115.834 14.8517V32H112.702L105.242 21.2069H105.116V32H101.49V14.8517H104.672L112.074 25.6364H112.225V14.8517H115.834ZM124.573 32.2512C123.273 32.2512 122.148 31.9749 121.199 31.4222C120.255 30.864 119.527 30.0881 119.013 29.0945C118.5 28.0953 118.243 26.937 118.243 25.6196C118.243 24.2911 118.5 23.13 119.013 22.1364C119.527 21.1372 120.255 20.3612 121.199 19.8086C122.148 19.2504 123.273 18.9713 124.573 18.9713C125.874 18.9713 126.996 19.2504 127.939 19.8086C128.888 20.3612 129.62 21.1372 130.133 22.1364C130.647 23.13 130.903 24.2911 130.903 25.6196C130.903 26.937 130.647 28.0953 130.133 29.0945C129.62 30.0881 128.888 30.864 127.939 31.4222C126.996 31.9749 125.874 32.2512 124.573 32.2512ZM124.59 29.488C125.182 29.488 125.676 29.3206 126.072 28.9856C126.468 28.6451 126.767 28.1818 126.968 27.5957C127.175 27.0096 127.278 26.3425 127.278 25.5945C127.278 24.8465 127.175 24.1794 126.968 23.5933C126.767 23.0072 126.468 22.5439 126.072 22.2033C125.676 21.8628 125.182 21.6926 124.59 21.6926C123.993 21.6926 123.49 21.8628 123.083 22.2033C122.681 22.5439 122.377 23.0072 122.17 23.5933C121.969 24.1794 121.869 24.8465 121.869 25.5945C121.869 26.3425 121.969 27.0096 122.17 27.5957C122.377 28.1818 122.681 28.6451 123.083 28.9856C123.49 29.3206 123.993 29.488 124.59 29.488ZM145.521 19.1388V21.8182H137.776V19.1388H145.521ZM139.534 16.0574H143.101V28.0478C143.101 28.3772 143.151 28.634 143.252 28.8182C143.352 28.9968 143.492 29.1224 143.67 29.195C143.855 29.2675 144.067 29.3038 144.307 29.3038C144.474 29.3038 144.642 29.2899 144.809 29.262C144.977 29.2285 145.105 29.2033 145.194 29.1866L145.755 31.8409C145.577 31.8967 145.326 31.9609 145.002 32.0335C144.678 32.1116 144.284 32.1591 143.821 32.1758C142.962 32.2093 142.208 32.0949 141.56 31.8325C140.918 31.5702 140.419 31.1627 140.062 30.61C139.704 30.0574 139.529 29.3596 139.534 28.5167V16.0574ZM147.844 32V19.1388H151.411V32H147.844ZM149.636 17.4809C149.106 17.4809 148.651 17.305 148.272 16.9533C147.898 16.5961 147.711 16.1691 147.711 15.6722C147.711 15.181 147.898 14.7596 148.272 14.4079C148.651 14.0506 149.106 13.872 149.636 13.872C150.167 13.872 150.619 14.0506 150.993 14.4079C151.372 14.7596 151.562 15.181 151.562 15.6722C151.562 16.1691 151.372 16.5961 150.993 16.9533C150.619 17.305 150.167 17.4809 149.636 17.4809ZM160.13 32.2512C158.807 32.2512 157.668 31.9833 156.714 31.4474C155.765 30.9059 155.034 30.1411 154.52 29.1531C154.006 28.1595 153.75 26.9844 153.75 25.628C153.75 24.305 154.006 23.1439 154.52 22.1447C155.034 21.1455 155.756 20.3668 156.689 19.8086C157.626 19.2504 158.726 18.9713 159.988 18.9713C160.836 18.9713 161.626 19.1081 162.357 19.3816C163.094 19.6495 163.736 20.0542 164.283 20.5957C164.836 21.1372 165.266 21.8182 165.573 22.6388C165.88 23.4537 166.033 24.4083 166.033 25.5024V26.4821H155.173V24.2715H162.676C162.676 23.758 162.564 23.303 162.341 22.9067C162.117 22.5104 161.808 22.2006 161.411 21.9773C161.02 21.7484 160.565 21.634 160.046 21.634C159.505 21.634 159.025 21.7596 158.606 22.0108C158.193 22.2564 157.869 22.5885 157.635 23.0072C157.4 23.4203 157.28 23.8808 157.275 24.3888V26.4904C157.275 27.1268 157.392 27.6766 157.626 28.14C157.867 28.6033 158.204 28.9605 158.64 29.2117C159.075 29.4629 159.591 29.5885 160.189 29.5885C160.585 29.5885 160.948 29.5327 161.277 29.4211C161.607 29.3094 161.888 29.1419 162.123 28.9187C162.357 28.6954 162.536 28.4218 162.659 28.0981L165.958 28.3158C165.79 29.1085 165.447 29.8006 164.928 30.3923C164.414 30.9785 163.75 31.4362 162.935 31.7656C162.126 32.0893 161.191 32.2512 160.13 32.2512ZM171.928 24.5646V32H168.361V19.1388H171.76V21.4079H171.911C172.196 20.6599 172.673 20.0682 173.343 19.6328C174.013 19.1918 174.825 18.9713 175.78 18.9713C176.673 18.9713 177.451 19.1667 178.116 19.5574C178.78 19.9482 179.296 20.5064 179.665 21.2321C180.033 21.9522 180.217 22.8118 180.217 23.811V32H176.65V24.4474C176.656 23.6603 176.455 23.0463 176.048 22.6053C175.64 22.1587 175.079 21.9354 174.365 21.9354C173.884 21.9354 173.46 22.0387 173.092 22.2452C172.729 22.4518 172.444 22.7532 172.238 23.1495C172.037 23.5403 171.934 24.012 171.928 24.5646ZM188.89 32.2512C187.567 32.2512 186.428 31.9833 185.474 31.4474C184.525 30.9059 183.793 30.1411 183.28 29.1531C182.766 28.1595 182.51 26.9844 182.51 25.628C182.51 24.305 182.766 23.1439 183.28 22.1447C183.793 21.1455 184.516 20.3668 185.449 19.8086C186.386 19.2504 187.486 18.9713 188.748 18.9713C189.596 18.9713 190.386 19.1081 191.117 19.3816C191.854 19.6495 192.496 20.0542 193.043 20.5957C193.596 21.1372 194.026 21.8182 194.333 22.6388C194.64 23.4537 194.793 24.4083 194.793 25.5024V26.4821H183.933V24.2715H191.435C191.435 23.758 191.324 23.303 191.1 22.9067C190.877 22.5104 190.567 22.2006 190.171 21.9773C189.78 21.7484 189.325 21.634 188.806 21.634C188.265 21.634 187.785 21.7596 187.366 22.0108C186.953 22.2564 186.629 22.5885 186.395 23.0072C186.16 23.4203 186.04 23.8808 186.035 24.3888V26.4904C186.035 27.1268 186.152 27.6766 186.386 28.14C186.626 28.6033 186.964 28.9605 187.4 29.2117C187.835 29.4629 188.351 29.5885 188.949 29.5885C189.345 29.5885 189.708 29.5327 190.037 29.4211C190.366 29.3094 190.648 29.1419 190.883 28.9187C191.117 28.6954 191.296 28.4218 191.419 28.0981L194.718 28.3158C194.55 29.1085 194.207 29.8006 193.688 30.3923C193.174 30.9785 192.51 31.4362 191.695 31.7656C190.886 32.0893 189.951 32.2512 188.89 32.2512ZM207.822 22.8062L204.556 23.0072C204.5 22.7281 204.38 22.4769 204.196 22.2536C204.012 22.0247 203.769 21.8433 203.468 21.7093C203.172 21.5698 202.817 21.5 202.404 21.5C201.852 21.5 201.386 21.6172 201.006 21.8517C200.626 22.0805 200.437 22.3876 200.437 22.7727C200.437 23.0797 200.559 23.3393 200.805 23.5514C201.051 23.7636 201.472 23.9338 202.069 24.0622L204.397 24.5311C205.648 24.7879 206.58 25.201 207.194 25.7703C207.808 26.3397 208.115 27.0877 208.115 28.0144C208.115 28.8573 207.866 29.5969 207.37 30.2333C206.878 30.8696 206.203 31.3664 205.343 31.7237C204.489 32.0754 203.504 32.2512 202.388 32.2512C200.685 32.2512 199.329 31.8967 198.318 31.1878C197.313 30.4733 196.724 29.502 196.551 28.2739L200.06 28.0897C200.166 28.6089 200.423 29.0052 200.83 29.2787C201.238 29.5467 201.76 29.6806 202.396 29.6806C203.021 29.6806 203.524 29.5606 203.903 29.3206C204.288 29.075 204.484 28.7596 204.489 28.3744C204.484 28.0506 204.347 27.7855 204.079 27.5789C203.811 27.3668 203.398 27.2049 202.84 27.0933L200.612 26.6495C199.356 26.3983 198.421 25.9629 197.807 25.3433C197.199 24.7237 196.895 23.9338 196.895 22.9737C196.895 22.1475 197.118 21.4358 197.565 20.8385C198.017 20.2412 198.65 19.7807 199.465 19.4569C200.286 19.1332 201.246 18.9713 202.346 18.9713C203.97 18.9713 205.248 19.3146 206.181 20.0012C207.118 20.6878 207.665 21.6228 207.822 22.8062Z" fill="#717171"/>
<path d="M15 15.5547V11.75C15 9.16414 16.0272 6.68419 17.8557 4.85571C19.6842 3.02723 22.1641 2 24.75 2H57.25C59.8359 2 62.3158 3.02723 64.1443 4.85571C65.9728 6.68419 67 9.16414 67 11.75V15.5547M15 15.5547C16.0183 15.195 17.1103 15 18.25 15H63.75C64.8897 15 65.9817 15.195 67 15.5547M15 15.5547C13.0986 16.2269 11.4524 17.4722 10.2883 19.1191C9.12419 20.7659 8.49939 22.7333 8.5 24.75V28.5547M67 15.5547C68.9014 16.2269 70.5476 17.4722 71.7117 19.1191C72.8758 20.7659 73.5006 22.7333 73.5 24.75V28.5547M8.5 28.5547C9.51833 28.195 10.6103 28 11.75 28H70.25C71.357 27.9987 72.4561 28.1863 73.5 28.5547M8.5 28.5547C4.71267 29.8937 2 33.5033 2 37.75V63.75C2 66.3359 3.02723 68.8158 4.85571 70.6443C6.68419 72.4728 9.16414 73.5 11.75 73.5H70.25C72.8359 73.5 75.3158 72.4728 77.1443 70.6443C78.9728 68.8158 80 66.3359 80 63.75V37.75C80.0006 35.7333 79.3758 33.7659 78.2117 32.1191C77.0476 30.4722 75.4014 29.2269 73.5 28.5547" stroke="#717171" stroke-width="3" stroke-linecap="round" stroke-linejoin="round"/>
</svg>
