<svg width="336" height="124" viewBox="0 0 336 124" fill="none" xmlns="http://www.w3.org/2000/svg">
<path d="M83.1099 0.00219712C95.0945 -0.090296 107.123 4.84423 110.841 14.3557C116.249 29.5731 100.964 36.8713 90.1493 43.7872C80.5872 49.2625 75.1315 53.2577 75.1315 61.5582C75.1315 74.0094 102.436 64.3188 102.436 76.6382C102.436 96.0063 77.8619 87.3558 77.8619 102.652C67.0458 91.5846 83.7918 87.638 83.7918 82.1046C83.7918 73.8041 51.3486 77.971 58.1088 98.7217C62.1647 111.173 76.6157 123.371 88.7821 105.386C82.0226 134.439 51.3437 123.634 44.5835 101.498C41.8799 93.1979 45.1216 86.3039 47.8261 78.0034C20.7877 90.4547 -3.05176e-05 75.4565 -3.05176e-05 56.0886C-3.05176e-05 40.8712 6.9718 30.0086 21.8438 35.5409C28.6033 38.3081 29.6964 48.9046 25.6405 53.0554C22.9369 55.8225 20.2248 57.2061 16.1689 53.0554C20.2248 53.0554 22.9284 41.9916 16.1689 41.9916C9.40943 41.9916 6.71071 50.3246 8.063 57.2425C10.7666 69.6937 22.9569 75.2241 36.4764 68.3062C28.3649 60.0057 37.802 46.1548 33.7462 33.7046C28.338 21.2533 23.169 27.3235 19.1134 28.7061C19.1134 21.7891 23.2617 17.77 28.6696 17.77C36.7811 17.77 41.0389 28.5515 45.0947 45.1535C45.0947 17.4844 52.7065 10.2077 67.5785 3.28978C72.2256 1.12812 77.6603 0.0429622 83.1075 0L83.1099 0.00219712ZM53.2899 26.1042C51.7815 26.1042 50.5597 27.3285 50.5597 28.8379C50.5597 30.3473 51.7825 31.5716 53.2899 31.5716C54.7983 31.5716 56.0201 30.3473 56.0201 28.8379C56.0201 27.3275 54.7973 26.1042 53.2899 26.1042ZM69.6721 28.8379C68.1637 28.8379 66.942 30.0622 66.942 31.5716C66.942 33.081 68.1647 34.3053 69.6721 34.3053C71.1806 34.3053 72.4023 33.081 72.4023 31.5716C72.4023 30.0612 71.1796 28.8379 69.6721 28.8379Z" fill="#515151"/>
<path d="M114.956 99.6328C110.577 99.6328 106.773 98.8145 103.544 97.1779C100.315 95.497 97.7939 92.9536 95.9803 89.5477C94.211 86.1417 93.3264 81.829 93.3264 76.6095C93.3264 69.0457 95.2284 63.3175 99.0324 59.425C102.836 55.5324 108.144 53.5862 114.956 53.5862C119.335 53.5862 123.139 54.4266 126.368 56.1075C129.642 57.7441 132.163 60.2433 133.932 63.605C135.702 66.9667 136.586 71.2794 136.586 76.5432C136.586 84.1513 134.684 89.9016 130.88 93.7941C127.12 97.6866 121.812 99.6328 114.956 99.6328ZM114.956 90.8083C117.212 90.8083 119.114 90.3439 120.662 89.415C122.255 88.4861 123.449 86.9822 124.245 84.9032C125.086 82.78 125.506 79.9933 125.506 76.5432C125.506 73.0487 125.086 70.2621 124.245 68.1831C123.449 66.1042 122.255 64.6223 120.662 63.7377C119.114 62.8088 117.212 62.3443 114.956 62.3443C112.7 62.3443 110.798 62.8088 109.25 63.7377C107.702 64.6666 106.508 66.1705 105.667 68.2495C104.871 70.3284 104.473 73.1372 104.473 76.6759C104.473 80.1703 104.871 82.957 105.667 85.0359C106.508 87.0706 107.702 88.5524 109.25 89.4813C110.798 90.366 112.7 90.8083 114.956 90.8083ZM156.91 99.5665C154.521 99.5665 152.265 99.2126 150.142 98.5049C148.019 97.7972 146.139 96.7356 144.502 95.3201C142.866 93.9047 141.583 92.1132 140.654 89.9458C139.725 87.7784 139.261 85.2571 139.261 82.3819C139.261 79.3298 139.703 76.6759 140.588 74.42C141.472 72.1199 142.689 70.2178 144.237 68.7139C145.829 67.21 147.687 66.082 149.81 65.3301C151.933 64.5781 154.278 64.2021 156.843 64.2021C158.657 64.2021 160.515 64.4012 162.417 64.7993C164.363 65.1531 166.066 65.6618 167.525 66.3253V74.8181C165.977 74.1103 164.451 73.5353 162.947 73.093C161.488 72.6064 159.984 72.3631 158.436 72.3631C155.649 72.3631 153.393 73.0709 151.668 74.4863C149.987 75.8576 149.147 78.1134 149.147 81.254C149.147 84.5715 149.899 87.0706 151.403 88.7515C152.906 90.4324 155.406 91.2728 158.9 91.2728C160.537 91.2728 162.107 90.9853 163.611 90.4102C165.159 89.8352 166.486 89.2381 167.592 88.6188V97.0452C166.044 97.8414 164.429 98.4607 162.748 98.903C161.067 99.3453 159.121 99.5665 156.91 99.5665ZM185.569 100.031C181.677 100.031 178.78 99.1242 176.878 97.3106C174.976 95.4528 174.025 92.8431 174.025 89.4813V72.6949H169.115V65.131H174.025V55.9084H184.375V65.131H191.74V72.6949H184.375V88.2207C184.375 89.3708 184.618 90.2333 185.105 90.8083C185.592 91.3391 186.41 91.6045 187.56 91.6045C188.223 91.6045 188.953 91.4718 189.749 91.2064C190.546 90.941 191.209 90.6093 191.74 90.2112V98.7039C190.811 99.1905 189.794 99.5223 188.688 99.6992C187.626 99.9204 186.587 100.031 185.569 100.031ZM211.717 99.6992C206.055 99.6992 201.787 98.1953 198.911 95.1874C196.081 92.1353 194.665 87.6678 194.665 81.7848C194.665 75.4595 196.103 70.9256 198.978 68.1831C201.897 65.3964 206.144 64.0031 211.717 64.0031C215.477 64.0031 218.617 64.6445 221.139 65.9272C223.704 67.1657 225.628 69.0899 226.911 71.6996C228.238 74.3094 228.901 77.6711 228.901 81.7848C228.901 87.6678 227.42 92.1353 224.456 95.1874C221.492 98.1953 217.246 99.6992 211.717 99.6992ZM211.717 91.8036C213.354 91.8036 214.703 91.4276 215.764 90.6756C216.87 89.8794 217.688 88.7515 218.219 87.2918C218.794 85.7879 219.082 83.9522 219.082 81.7848C219.082 79.3077 218.794 77.3615 218.219 75.946C217.688 74.4863 216.87 73.4468 215.764 72.8276C214.658 72.1641 213.309 71.8323 211.717 71.8323C210.036 71.8323 208.665 72.1641 207.603 72.8276C206.542 73.4911 205.745 74.5527 205.215 76.0124C204.728 77.4278 204.485 79.352 204.485 81.7848C204.485 85.1465 205.06 87.6678 206.21 89.3486C207.404 90.9853 209.24 91.8036 211.717 91.8036ZM251.185 99.6992C250.521 99.6992 249.548 99.6328 248.265 99.5001C246.982 99.3674 245.655 99.0799 244.284 98.6376C242.913 98.151 241.741 97.4212 240.768 96.4481L242.758 93.3296V110.713H233.071V72.2304C233.071 70.7707 233.491 69.5322 234.332 68.5149C235.172 67.4975 236.322 66.6571 237.782 65.9936C239.242 65.3301 240.922 64.8435 242.825 64.5339C244.771 64.18 246.85 64.0031 249.061 64.0031C252.423 64.0031 255.365 64.5781 257.886 65.7282C260.451 66.834 262.442 68.7139 263.857 71.3679C265.317 74.0219 266.047 77.649 266.047 82.2492C266.047 85.6994 265.45 88.7515 264.255 91.4055C263.061 94.0152 261.358 96.05 259.147 97.5096C256.979 98.9693 254.325 99.6992 251.185 99.6992ZM248.265 91.7372C250.035 91.7372 251.494 91.4276 252.644 90.8083C253.794 90.1891 254.657 89.1717 255.232 87.7563C255.851 86.2966 256.161 84.3503 256.161 81.9175C256.161 79.8828 255.94 78.1577 255.497 76.7422C255.055 75.3268 254.281 74.243 253.175 73.4911C252.113 72.6949 250.61 72.2968 248.663 72.2968C246.54 72.2968 245.014 72.518 244.085 72.9603C243.201 73.3584 242.758 73.8892 242.758 74.5527V90.3439C243.599 90.8305 244.527 91.1843 245.545 91.4055C246.562 91.6266 247.469 91.7372 248.265 91.7372ZM286.057 99.6992C282.961 99.6992 280.218 99.2126 277.83 98.2395C275.441 97.2664 273.583 95.7846 272.256 93.7941C270.929 91.7593 270.266 89.1275 270.266 85.8985V65.131H280.152V85.1023C280.152 87.2255 280.616 88.8178 281.545 89.8794C282.518 90.8968 284.044 91.4055 286.123 91.4055C288.247 91.4055 289.773 90.8968 290.701 89.8794C291.63 88.8178 292.095 87.2255 292.095 85.1023V65.131H301.384V85.8985C301.384 90.6756 300.013 94.17 297.27 96.3817C294.528 98.5934 290.79 99.6992 286.057 99.6992ZM317.413 99.6992C315.024 99.6992 312.967 99.4338 311.242 98.903C309.562 98.4164 307.969 97.8635 306.465 97.2442V88.5524C307.394 89.1717 308.434 89.8131 309.584 90.4766C310.734 91.0958 311.994 91.6045 313.366 92.0026C314.781 92.4007 316.263 92.5998 317.811 92.5998C319.403 92.5998 320.509 92.3344 321.128 91.8036C321.792 91.2285 322.124 90.5429 322.124 89.7467C322.124 88.9948 321.792 88.3976 321.128 87.9553C320.465 87.4687 319.602 87.0706 318.541 86.761C317.479 86.4514 316.351 86.1639 315.157 85.8985C314.095 85.6773 313.034 85.3455 311.972 84.9032C310.911 84.4167 309.96 83.7753 309.119 82.9791C308.279 82.1829 307.593 81.2098 307.062 80.0597C306.576 78.8654 306.333 77.4278 306.333 75.747C306.333 73.5795 306.753 71.7881 307.593 70.3726C308.434 68.913 309.539 67.7408 310.911 66.8561C312.282 65.9715 313.764 65.3522 315.356 64.9983C316.948 64.6002 318.497 64.4233 320.001 64.4675C322.743 64.556 324.91 64.8656 326.503 65.3964C328.139 65.883 329.621 66.5244 330.948 67.3206V75.0835C329.444 74.243 327.94 73.469 326.436 72.7612C324.977 72.0093 323.296 71.6333 321.394 71.6333C319.669 71.6333 318.43 71.8987 317.678 72.4295C316.926 72.9603 316.55 73.668 316.55 74.5527C316.55 75.3931 316.794 76.0566 317.28 76.5432C317.811 77.0297 318.497 77.4278 319.337 77.7375C320.177 78.0029 321.106 78.2683 322.124 78.5337C323.23 78.7991 324.358 79.1308 325.508 79.5289C326.702 79.8828 327.808 80.4136 328.825 81.1213C329.887 81.7848 330.727 82.7358 331.346 83.9743C332.01 85.1686 332.342 86.761 332.342 88.7515C332.297 91.4497 331.568 93.6171 330.152 95.2538C328.737 96.8462 326.901 97.9962 324.645 98.7039C322.433 99.3674 320.023 99.6992 317.413 99.6992Z" fill="#515151"/>
<path d="M272.57 108.183L272.764 107.026H278.217L278.022 108.183H275.99L275.082 113.665H273.695L274.602 108.183H272.57ZM278.716 113.759C278.401 113.759 278.127 113.704 277.896 113.594C277.667 113.481 277.498 113.315 277.39 113.095C277.282 112.874 277.255 112.601 277.309 112.274C277.357 111.998 277.446 111.766 277.578 111.581C277.712 111.393 277.875 111.241 278.068 111.127C278.26 111.012 278.473 110.925 278.706 110.864C278.942 110.804 279.185 110.763 279.436 110.741C279.725 110.711 279.961 110.682 280.143 110.653C280.326 110.625 280.463 110.585 280.554 110.533C280.645 110.479 280.7 110.399 280.72 110.294V110.274C280.752 110.071 280.714 109.913 280.606 109.801C280.5 109.686 280.331 109.629 280.097 109.629C279.851 109.629 279.641 109.683 279.468 109.791C279.298 109.899 279.175 110.036 279.102 110.203L277.844 110.099C277.956 109.796 278.126 109.535 278.353 109.315C278.582 109.092 278.858 108.921 279.18 108.802C279.502 108.681 279.863 108.621 280.262 108.621C280.539 108.621 280.797 108.653 281.037 108.718C281.279 108.783 281.488 108.883 281.663 109.02C281.84 109.156 281.968 109.331 282.046 109.545C282.125 109.756 282.142 110.01 282.094 110.307L281.533 113.665H280.224L280.34 112.975H280.301C280.196 113.13 280.066 113.267 279.912 113.386C279.759 113.503 279.583 113.595 279.384 113.662C279.185 113.727 278.963 113.759 278.716 113.759ZM279.27 112.806C279.471 112.806 279.656 112.766 279.825 112.686C279.996 112.604 280.136 112.494 280.246 112.355C280.359 112.217 280.43 112.06 280.46 111.885L280.545 111.357C280.501 111.385 280.439 111.41 280.357 111.431C280.277 111.453 280.189 111.474 280.094 111.493C280.001 111.51 279.907 111.527 279.812 111.542C279.717 111.555 279.631 111.568 279.556 111.581C279.389 111.604 279.24 111.642 279.108 111.694C278.977 111.746 278.87 111.816 278.787 111.905C278.705 111.991 278.655 112.099 278.635 112.229C278.605 112.417 278.649 112.561 278.768 112.66C278.889 112.757 279.057 112.806 279.27 112.806ZM287.335 110.106L286.08 110.183C286.073 110.073 286.043 109.975 285.989 109.888C285.937 109.8 285.861 109.729 285.759 109.678C285.66 109.626 285.534 109.6 285.383 109.6C285.156 109.6 284.954 109.652 284.777 109.755C284.6 109.859 284.499 109.992 284.475 110.154C284.456 110.258 284.483 110.345 284.556 110.417C284.63 110.488 284.778 110.549 285 110.598L285.876 110.78C286.343 110.879 286.68 111.045 286.887 111.276C287.097 111.507 287.171 111.81 287.111 112.184C287.057 112.501 286.917 112.779 286.693 113.017C286.468 113.252 286.183 113.436 285.837 113.568C285.491 113.697 285.107 113.762 284.686 113.762C284.01 113.762 283.495 113.624 283.143 113.347C282.791 113.071 282.621 112.696 282.634 112.222L283.983 112.151C283.993 112.354 284.065 112.508 284.196 112.611C284.328 112.713 284.509 112.765 284.738 112.767C284.995 112.771 285.213 112.718 285.393 112.608C285.574 112.496 285.677 112.36 285.701 112.2C285.718 112.087 285.686 111.997 285.603 111.927C285.523 111.858 285.376 111.801 285.163 111.756L284.333 111.584C283.861 111.487 283.523 111.313 283.318 111.062C283.113 110.811 283.042 110.492 283.107 110.106C283.159 109.796 283.288 109.532 283.493 109.311C283.7 109.089 283.967 108.918 284.294 108.799C284.622 108.68 284.993 108.621 285.406 108.621C286.052 108.621 286.538 108.754 286.864 109.02C287.193 109.285 287.35 109.647 287.335 110.106ZM289.219 112.232L289.494 110.576H289.695L291.611 108.686H293.197L290.642 111.188H290.311L289.219 112.232ZM287.731 113.665L288.833 107.026H290.214L289.112 113.665H287.731ZM290.843 113.665L289.741 111.496L290.82 110.52L292.461 113.665H290.843ZM295.167 113.665L295.997 108.686H297.31L297.167 109.564H297.222C297.373 109.272 297.584 109.042 297.854 108.874C298.127 108.705 298.432 108.621 298.772 108.621C299.109 108.621 299.383 108.706 299.595 108.877C299.809 109.045 299.932 109.275 299.965 109.564H300.017C300.164 109.279 300.385 109.051 300.681 108.88C300.977 108.707 301.308 108.621 301.673 108.621C302.134 108.621 302.486 108.769 302.73 109.065C302.974 109.361 303.051 109.778 302.96 110.316L302.403 113.665H301.022L301.54 110.589C301.581 110.31 301.54 110.102 301.417 109.966C301.294 109.828 301.122 109.759 300.902 109.759C300.651 109.759 300.442 109.839 300.276 109.999C300.11 110.156 300.007 110.365 299.968 110.624L299.453 113.665H298.114L298.639 110.559C298.676 110.313 298.636 110.119 298.519 109.976C298.404 109.831 298.233 109.759 298.003 109.759C297.852 109.759 297.708 109.798 297.572 109.875C297.438 109.951 297.325 110.058 297.232 110.196C297.139 110.332 297.078 110.492 297.05 110.676L296.545 113.665H295.167ZM304.891 113.759C304.575 113.759 304.302 113.704 304.071 113.594C303.841 113.481 303.673 113.315 303.565 113.095C303.457 112.874 303.43 112.601 303.484 112.274C303.531 111.998 303.621 111.766 303.753 111.581C303.887 111.393 304.05 111.241 304.242 111.127C304.435 111.012 304.648 110.925 304.881 110.864C305.117 110.804 305.36 110.763 305.61 110.741C305.9 110.711 306.136 110.682 306.317 110.653C306.501 110.625 306.638 110.585 306.729 110.533C306.82 110.479 306.875 110.399 306.894 110.294V110.274C306.927 110.071 306.889 109.913 306.781 109.801C306.675 109.686 306.505 109.629 306.272 109.629C306.025 109.629 305.816 109.683 305.643 109.791C305.472 109.899 305.35 110.036 305.276 110.203L304.019 110.099C304.131 109.796 304.301 109.535 304.528 109.315C304.757 109.092 305.032 108.921 305.354 108.802C305.676 108.681 306.037 108.621 306.437 108.621C306.714 108.621 306.972 108.653 307.212 108.718C307.454 108.783 307.662 108.883 307.838 109.02C308.015 109.156 308.142 109.331 308.22 109.545C308.3 109.756 308.316 110.01 308.269 110.307L307.708 113.665H306.398L306.515 112.975H306.476C306.37 113.13 306.24 113.267 306.087 113.386C305.933 113.503 305.757 113.595 305.559 113.662C305.36 113.727 305.137 113.759 304.891 113.759ZM305.445 112.806C305.646 112.806 305.831 112.766 305.999 112.686C306.17 112.604 306.311 112.494 306.421 112.355C306.533 112.217 306.605 112.06 306.635 111.885L306.719 111.357C306.676 111.385 306.613 111.41 306.531 111.431C306.451 111.453 306.364 111.474 306.268 111.493C306.176 111.51 306.082 111.527 305.986 111.542C305.891 111.555 305.806 111.568 305.73 111.581C305.564 111.604 305.415 111.642 305.283 111.694C305.151 111.746 305.044 111.816 304.962 111.905C304.88 111.991 304.829 112.099 304.81 112.229C304.779 112.417 304.824 112.561 304.943 112.66C305.064 112.757 305.231 112.806 305.445 112.806ZM310.647 110.786L310.167 113.665H308.789L309.619 108.686H310.932L310.789 109.564H310.844C311.002 109.272 311.225 109.042 311.512 108.874C311.802 108.705 312.131 108.621 312.501 108.621C312.847 108.621 313.135 108.696 313.366 108.848C313.6 108.999 313.764 109.214 313.859 109.493C313.956 109.772 313.973 110.106 313.908 110.495L313.376 113.665H311.995L312.485 110.741C312.534 110.436 312.496 110.198 312.368 110.028C312.243 109.855 312.041 109.768 311.762 109.768C311.576 109.768 311.405 109.808 311.25 109.888C311.094 109.968 310.963 110.085 310.857 110.238C310.754 110.39 310.683 110.572 310.647 110.786ZM315.865 113.759C315.55 113.759 315.276 113.704 315.045 113.594C314.816 113.481 314.647 113.315 314.539 113.095C314.431 112.874 314.404 112.601 314.458 112.274C314.506 111.998 314.595 111.766 314.727 111.581C314.861 111.393 315.024 111.241 315.217 111.127C315.409 111.012 315.622 110.925 315.855 110.864C316.091 110.804 316.334 110.763 316.585 110.741C316.874 110.711 317.11 110.682 317.292 110.653C317.475 110.625 317.612 110.585 317.703 110.533C317.794 110.479 317.849 110.399 317.869 110.294V110.274C317.901 110.071 317.863 109.913 317.755 109.801C317.649 109.686 317.48 109.629 317.246 109.629C317 109.629 316.79 109.683 316.617 109.791C316.446 109.899 316.324 110.036 316.251 110.203L314.993 110.099C315.105 109.796 315.275 109.535 315.502 109.315C315.731 109.092 316.007 108.921 316.329 108.802C316.651 108.681 317.012 108.621 317.411 108.621C317.688 108.621 317.946 108.653 318.186 108.718C318.428 108.783 318.637 108.883 318.812 109.02C318.989 109.156 319.117 109.331 319.194 109.545C319.274 109.756 319.291 110.01 319.243 110.307L318.682 113.665H317.373L317.489 112.975H317.45C317.344 113.13 317.215 113.267 317.061 113.386C316.908 113.503 316.732 113.595 316.533 113.662C316.334 113.727 316.112 113.759 315.865 113.759ZM316.419 112.806C316.62 112.806 316.805 112.766 316.974 112.686C317.145 112.604 317.285 112.494 317.395 112.355C317.508 112.217 317.579 112.06 317.609 111.885L317.694 111.357C317.65 111.385 317.588 111.41 317.505 111.431C317.426 111.453 317.338 111.474 317.243 111.493C317.15 111.51 317.056 111.527 316.961 111.542C316.866 111.555 316.78 111.568 316.705 111.581C316.538 111.604 316.389 111.642 316.257 111.694C316.126 111.746 316.019 111.816 315.936 111.905C315.854 111.991 315.804 112.099 315.784 112.229C315.754 112.417 315.798 112.561 315.917 112.66C316.038 112.757 316.206 112.806 316.419 112.806ZM321.686 115.636C321.236 115.636 320.861 115.575 320.561 115.451C320.263 115.33 320.036 115.165 319.88 114.955C319.727 114.746 319.642 114.51 319.627 114.249L320.937 114.077C320.961 114.178 321.006 114.272 321.073 114.359C321.142 114.445 321.241 114.514 321.368 114.566C321.498 114.618 321.665 114.644 321.871 114.644C322.171 114.644 322.433 114.571 322.655 114.424C322.878 114.279 323.015 114.036 323.067 113.694L323.216 112.783H323.158C323.076 112.922 322.963 113.052 322.82 113.176C322.68 113.299 322.508 113.399 322.305 113.477C322.104 113.555 321.872 113.594 321.608 113.594C321.232 113.594 320.906 113.507 320.629 113.334C320.355 113.159 320.156 112.892 320.033 112.534C319.911 112.173 319.896 111.717 319.987 111.166C320.082 110.602 320.253 110.13 320.499 109.752C320.746 109.374 321.037 109.091 321.375 108.903C321.712 108.715 322.063 108.621 322.428 108.621C322.707 108.621 322.932 108.668 323.103 108.763C323.275 108.856 323.408 108.973 323.501 109.114C323.594 109.252 323.66 109.388 323.699 109.522H323.754L323.89 108.686H325.262L324.425 113.714C324.358 114.139 324.197 114.494 323.942 114.777C323.689 115.062 323.368 115.276 322.979 115.419C322.59 115.564 322.159 115.636 321.686 115.636ZM322.205 112.556C322.425 112.556 322.623 112.501 322.798 112.391C322.975 112.279 323.123 112.119 323.242 111.911C323.361 111.702 323.444 111.451 323.492 111.159C323.539 110.867 323.538 110.615 323.488 110.401C323.441 110.184 323.348 110.017 323.21 109.898C323.073 109.779 322.894 109.72 322.671 109.72C322.442 109.72 322.241 109.781 322.068 109.905C321.895 110.026 321.752 110.194 321.637 110.41C321.525 110.626 321.446 110.876 321.401 111.159C321.353 111.447 321.351 111.695 321.394 111.905C321.439 112.112 321.529 112.273 321.663 112.388C321.797 112.5 321.978 112.556 322.205 112.556ZM327.787 113.762C327.277 113.762 326.854 113.659 326.519 113.451C326.184 113.241 325.949 112.945 325.813 112.563C325.679 112.178 325.656 111.723 325.745 111.198C325.831 110.686 326.005 110.236 326.267 109.849C326.53 109.463 326.861 109.161 327.259 108.945C327.656 108.729 328.099 108.621 328.588 108.621C328.916 108.621 329.213 108.674 329.479 108.78C329.747 108.883 329.97 109.041 330.147 109.253C330.324 109.463 330.445 109.725 330.51 110.041C330.577 110.356 330.576 110.726 330.507 111.149L330.445 111.529H326.244L326.377 110.673H329.281C329.314 110.474 329.301 110.298 329.243 110.144C329.184 109.991 329.087 109.871 328.951 109.785C328.815 109.696 328.647 109.652 328.448 109.652C328.245 109.652 328.055 109.701 327.878 109.801C327.701 109.9 327.551 110.031 327.43 110.193C327.312 110.353 327.235 110.527 327.2 110.715L327.048 111.564C327.005 111.826 327.013 112.043 327.074 112.216C327.136 112.389 327.245 112.519 327.398 112.605C327.551 112.689 327.746 112.731 327.981 112.731C328.135 112.731 328.279 112.71 328.413 112.667C328.549 112.623 328.67 112.56 328.776 112.475C328.882 112.389 328.968 112.282 329.035 112.154L330.296 112.239C330.179 112.546 330.002 112.814 329.764 113.043C329.527 113.27 329.24 113.447 328.905 113.574C328.573 113.7 328.2 113.762 327.787 113.762ZM330.996 113.665L331.825 108.686H333.164L333.018 109.554H333.07C333.213 109.245 333.404 109.012 333.644 108.854C333.886 108.694 334.147 108.614 334.425 108.614C334.495 108.614 334.567 108.619 334.643 108.627C334.72 108.634 334.79 108.645 334.85 108.66L334.643 109.888C334.582 109.867 334.496 109.849 334.383 109.836C334.273 109.821 334.168 109.814 334.069 109.814C333.868 109.814 333.681 109.858 333.508 109.947C333.335 110.033 333.189 110.154 333.07 110.31C332.954 110.465 332.877 110.645 332.84 110.848L332.377 113.665H330.996Z" fill="#515151"/>
</svg>
