<svg width="148" height="54" viewBox="0 0 148 54" fill="none" xmlns="http://www.w3.org/2000/svg">
<path d="M36.4486 0.000963565C41.7045 -0.0396001 46.9797 2.12448 48.6101 6.29582C50.9819 12.9695 44.2788 16.1702 39.5357 19.2033C35.3422 21.6045 32.9496 23.3566 32.9496 26.9969C32.9496 32.4575 44.924 28.2075 44.924 33.6103C44.924 42.1044 34.147 38.3106 34.147 45.019C29.4035 40.1652 36.7476 38.4344 36.7476 36.0077C36.7476 32.3674 22.5194 34.1948 25.4841 43.2952C27.2629 48.7558 33.6005 54.1055 38.9362 46.2179C35.9717 58.9594 22.5172 54.2206 19.5525 44.513C18.3668 40.8727 19.7884 37.8493 20.9746 34.2091C9.11663 39.6697 -7.62939e-06 33.0921 -7.62939e-06 24.5981C-7.62939e-06 17.9244 3.05755 13.1605 9.57978 15.5868C12.5442 16.8003 13.0236 21.4475 11.2449 23.2679C10.0592 24.4814 8.86976 25.0882 7.09102 23.2679C8.86976 23.2679 10.0554 18.4158 7.09102 18.4158C4.12659 18.4158 2.94304 22.0703 3.5361 25.1042C4.72179 30.5647 10.068 32.9902 15.997 29.9563C12.4396 26.316 16.5784 20.2416 14.7997 14.7814C12.4279 9.32083 10.161 11.9829 8.38234 12.5893C8.38234 9.55581 10.2016 7.79318 12.5733 7.79318C16.1307 7.79318 17.9979 12.5215 19.7767 19.8024C19.7767 7.66792 23.1149 4.47666 29.6371 1.44276C31.6751 0.494748 34.0586 0.0188414 36.4475 0L36.4486 0.000963565ZM23.3707 11.4482C22.7092 11.4482 22.1734 11.9851 22.1734 12.6471C22.1734 13.309 22.7096 13.846 23.3707 13.846C24.0323 13.846 24.5681 13.309 24.5681 12.6471C24.5681 11.9847 24.0318 11.4482 23.3707 11.4482ZM30.5553 12.6471C29.8938 12.6471 29.358 13.184 29.358 13.846C29.358 14.5079 29.8942 15.0449 30.5553 15.0449C31.2168 15.0449 31.7526 14.5079 31.7526 13.846C31.7526 13.1836 31.2164 12.6471 30.5553 12.6471Z" fill="#393939"/>
<path d="M50.415 43.3813C48.4946 43.3813 46.8263 43.0224 45.4102 42.3046C43.994 41.5675 42.8883 40.452 42.093 38.9583C41.317 37.4646 40.929 35.5732 40.929 33.2842C40.929 29.967 41.7632 27.4548 43.4315 25.7477C45.0998 24.0407 47.4276 23.1871 50.415 23.1871C52.3355 23.1871 54.0038 23.5557 55.4199 24.2928C56.8554 25.0106 57.9612 26.1066 58.7371 27.5809C59.5131 29.0552 59.9011 30.9466 59.9011 33.2551C59.9011 36.5917 59.0669 39.1135 57.3986 40.8206C55.7497 42.5277 53.4219 43.3813 50.415 43.3813ZM50.415 39.5112C51.4044 39.5112 52.2385 39.3075 52.9175 38.9001C53.6158 38.4928 54.1396 37.8332 54.4888 36.9215C54.8574 35.9903 55.0417 34.7682 55.0417 33.2551C55.0417 31.7226 54.8574 30.5005 54.4888 29.5887C54.1396 28.677 53.6158 28.0271 52.9175 27.6391C52.2385 27.2318 51.4044 27.0281 50.415 27.0281C49.4257 27.0281 48.5916 27.2318 47.9126 27.6391C47.2336 28.0465 46.7099 28.7061 46.3413 29.6178C45.9921 30.5296 45.8175 31.7614 45.8175 33.3133C45.8175 34.8458 45.9921 36.0679 46.3413 36.9796C46.7099 37.872 47.2336 38.5219 47.9126 38.9292C48.5916 39.3172 49.4257 39.5112 50.415 39.5112ZM68.814 43.3522C67.7664 43.3522 66.7771 43.197 65.8459 42.8866C64.9148 42.5762 64.0904 42.1106 63.3726 41.4899C62.6548 40.8691 62.0923 40.0835 61.6849 39.1329C61.2775 38.1824 61.0738 37.0766 61.0738 35.8157C61.0738 34.4772 61.2678 33.3133 61.6558 32.3239C62.0438 31.3152 62.5773 30.4811 63.2562 29.8215C63.9546 29.1619 64.7693 28.6673 65.7005 28.3375C66.6316 28.0077 67.6597 27.8428 68.7849 27.8428C69.5802 27.8428 70.395 27.9301 71.2291 28.1047C72.0827 28.2599 72.8295 28.483 73.4697 28.774V32.4985C72.7907 32.1881 72.1215 31.936 71.4619 31.742C70.8217 31.5286 70.1622 31.4219 69.4832 31.4219C68.2611 31.4219 67.2718 31.7323 66.5152 32.353C65.7781 32.9544 65.4095 33.9437 65.4095 35.3211C65.4095 36.776 65.7393 37.872 66.3988 38.6091C67.0584 39.3463 68.1544 39.7149 69.6869 39.7149C70.4047 39.7149 71.0933 39.5888 71.7529 39.3366C72.4318 39.0844 73.0138 38.8225 73.4988 38.551V42.2464C72.8198 42.5956 72.1118 42.8672 71.3746 43.0612C70.6375 43.2552 69.7839 43.3522 68.814 43.3522ZM81.383 43.5558C79.6759 43.5558 78.4053 43.1582 77.5712 42.3628C76.737 41.5481 76.3199 40.4035 76.3199 38.9292V31.5674H74.1667V28.2502H76.3199V24.2055H80.8593V28.2502H84.0892V31.5674H80.8593V38.3764C80.8593 38.8807 80.9659 39.259 81.1793 39.5112C81.3927 39.744 81.7516 39.8604 82.256 39.8604C82.5469 39.8604 82.867 39.8022 83.2162 39.6858C83.5654 39.5694 83.8564 39.4239 84.0892 39.2493V42.9739C83.6818 43.1873 83.2356 43.3328 82.7506 43.4103C82.2851 43.5073 81.8292 43.5558 81.383 43.5558ZM92.8502 43.4103C90.3672 43.4103 88.4952 42.7508 87.2343 41.4317C85.9927 40.0932 85.372 38.1339 85.372 35.5538C85.372 32.7798 86.0024 30.7914 87.2634 29.5887C88.5437 28.3666 90.406 27.7555 92.8502 27.7555C94.4991 27.7555 95.8764 28.0368 96.9821 28.5994C98.1073 29.1425 98.9511 29.9864 99.5137 31.1309C100.096 32.2754 100.387 33.7498 100.387 35.5538C100.387 38.1339 99.7368 40.0932 98.4371 41.4317C97.1373 42.7508 95.2751 43.4103 92.8502 43.4103ZM92.8502 39.9477C93.568 39.9477 94.1596 39.7828 94.6252 39.453C95.1102 39.1038 95.469 38.6091 95.7018 37.969C95.954 37.3094 96.0801 36.5044 96.0801 35.5538C96.0801 34.4675 95.954 33.614 95.7018 32.9932C95.469 32.353 95.1102 31.8972 94.6252 31.6256C94.1402 31.3346 93.5486 31.1891 92.8502 31.1891C92.1131 31.1891 91.5117 31.3346 91.0461 31.6256C90.5805 31.9166 90.2314 32.3821 89.9986 33.0223C89.7852 33.6431 89.6785 34.4869 89.6785 35.5538C89.6785 37.0281 89.9307 38.1339 90.4351 38.871C90.9588 39.5888 91.7639 39.9477 92.8502 39.9477ZM110.159 43.4103C109.868 43.4103 109.441 43.3813 108.879 43.3231C108.316 43.2649 107.734 43.1388 107.133 42.9448C106.532 42.7314 106.017 42.4113 105.591 41.9845L106.464 40.6169V48.2406H102.215V31.3637C102.215 30.7235 102.4 30.1804 102.768 29.7342C103.137 29.288 103.641 28.9195 104.281 28.6285C104.921 28.3375 105.659 28.1241 106.493 27.9883C107.346 27.8331 108.258 27.7555 109.228 27.7555C110.702 27.7555 111.992 28.0077 113.098 28.5121C114.223 28.997 115.096 29.8215 115.717 30.9854C116.357 32.1494 116.677 33.7401 116.677 35.7575C116.677 37.2706 116.415 38.6091 115.891 39.7731C115.368 40.9176 114.621 41.8099 113.651 42.4501C112.7 43.0903 111.536 43.4103 110.159 43.4103ZM108.879 39.9186C109.655 39.9186 110.295 39.7828 110.799 39.5112C111.304 39.2396 111.682 38.7934 111.934 38.1727C112.206 37.5325 112.341 36.679 112.341 35.612C112.341 34.7197 112.244 33.9631 112.05 33.3424C111.856 32.7216 111.517 32.2463 111.032 31.9166C110.566 31.5674 109.907 31.3928 109.053 31.3928C108.122 31.3928 107.453 31.4898 107.046 31.6838C106.658 31.8584 106.464 32.0912 106.464 32.3821V39.3075C106.832 39.5209 107.24 39.6761 107.686 39.7731C108.132 39.8701 108.53 39.9186 108.879 39.9186ZM125.453 43.4103C124.095 43.4103 122.892 43.197 121.845 42.7702C120.797 42.3434 119.982 41.6936 119.4 40.8206C118.818 39.9283 118.527 38.774 118.527 37.3579V28.2502H122.863V37.0087C122.863 37.9399 123.067 38.6382 123.474 39.1038C123.901 39.55 124.57 39.7731 125.482 39.7731C126.413 39.7731 127.082 39.55 127.49 39.1038C127.897 38.6382 128.101 37.9399 128.101 37.0087V28.2502H132.174V37.3579C132.174 39.453 131.573 40.9855 130.37 41.9554C129.168 42.9254 127.528 43.4103 125.453 43.4103ZM139.204 43.4103C138.157 43.4103 137.254 43.294 136.498 43.0612C135.761 42.8478 135.062 42.6053 134.403 42.3337V38.5219C134.81 38.7934 135.266 39.0747 135.77 39.3657C136.275 39.6373 136.828 39.8604 137.429 40.035C138.05 40.2095 138.7 40.2968 139.379 40.2968C140.077 40.2968 140.562 40.1805 140.834 39.9477C141.125 39.6955 141.27 39.3948 141.27 39.0456C141.27 38.7158 141.125 38.454 140.834 38.26C140.543 38.0466 140.164 37.872 139.699 37.7362C139.233 37.6004 138.739 37.4743 138.215 37.3579C137.749 37.2609 137.284 37.1154 136.818 36.9215C136.352 36.7081 135.935 36.4268 135.567 36.0776C135.198 35.7284 134.898 35.3017 134.665 34.7973C134.451 34.2735 134.345 33.6431 134.345 32.9059C134.345 31.9554 134.529 31.1697 134.898 30.549C135.266 29.9088 135.751 29.3947 136.352 29.0067C136.954 28.6188 137.604 28.3472 138.302 28.192C139 28.0174 139.679 27.9398 140.339 27.9592C141.542 27.998 142.492 28.1338 143.191 28.3666C143.908 28.58 144.558 28.8613 145.14 29.2104V32.6149C144.481 32.2463 143.821 31.9069 143.161 31.5965C142.521 31.2667 141.784 31.1018 140.95 31.1018C140.193 31.1018 139.65 31.2182 139.32 31.451C138.991 31.6838 138.826 31.9942 138.826 32.3821C138.826 32.7507 138.932 33.0417 139.146 33.2551C139.379 33.4685 139.679 33.6431 140.048 33.7788C140.417 33.8952 140.824 34.0116 141.27 34.128C141.755 34.2444 142.25 34.3899 142.754 34.5645C143.278 34.7197 143.763 34.9525 144.209 35.2629C144.675 35.5538 145.043 35.9709 145.315 36.5141C145.606 37.0378 145.751 37.7362 145.751 38.6091C145.732 39.7925 145.412 40.743 144.791 41.4608C144.17 42.1591 143.365 42.6635 142.376 42.9739C141.406 43.2649 140.349 43.4103 139.204 43.4103Z" fill="#393939"/>
</svg>
