<svg width="112" height="124" viewBox="0 0 112 124" fill="none" xmlns="http://www.w3.org/2000/svg">
<path d="M28.855 0.00219712C16.8704 -0.090296 4.84197 4.84423 1.12422 14.3557C-4.28395 29.5731 11.0005 36.8713 21.8157 43.7872C31.3777 49.2625 36.8334 53.2577 36.8334 61.5582C36.8334 74.0094 9.52927 64.3188 9.52927 76.6382C9.52927 96.0063 34.103 87.3558 34.103 102.652C44.9191 91.5846 28.1731 87.638 28.1731 82.1046C28.1731 73.8041 60.6163 77.971 53.8561 98.7217C49.8002 111.173 35.3493 123.371 23.1828 105.386C29.9423 134.439 60.6212 123.634 67.3814 101.498C70.085 93.1979 66.8434 86.3039 64.1388 78.0034C91.1772 90.4547 111.965 75.4565 111.965 56.0886C111.965 40.8712 104.993 30.0086 90.1211 35.5409C83.3617 38.3081 82.2685 48.9046 86.3244 53.0554C89.028 55.8225 91.7401 57.2061 95.796 53.0554C91.7401 53.0554 89.0365 41.9916 95.796 41.9916C102.556 41.9916 105.254 50.3246 103.902 57.2425C101.198 69.6937 89.008 75.2241 75.4886 68.3062C83.6001 60.0057 74.163 46.1548 78.2187 33.7046C83.6269 21.2533 88.7959 27.3235 92.8516 28.7061C92.8516 21.7891 88.7033 17.77 83.2953 17.77C75.1838 17.77 70.9261 28.5515 66.8702 45.1535C66.8702 17.4844 59.2584 10.2077 44.3864 3.28978C39.7394 1.12812 34.3046 0.0429622 28.8574 0L28.855 0.00219712ZM58.675 26.1042C60.1835 26.1042 61.4052 27.3285 61.4052 28.8379C61.4052 30.3473 60.1825 31.5716 58.675 31.5716C57.1666 31.5716 55.9449 30.3473 55.9449 28.8379C55.9449 27.3275 57.1676 26.1042 58.675 26.1042ZM42.2928 28.8379C43.8012 28.8379 45.023 30.0622 45.023 31.5716C45.023 33.081 43.8002 34.3053 42.2928 34.3053C40.7844 34.3053 39.5626 33.081 39.5626 31.5716C39.5626 30.0612 40.7854 28.8379 42.2928 28.8379Z" fill="#515151"/>
</svg>
