<svg width="16" height="14" viewBox="0 0 16 14" fill="none" xmlns="http://www.w3.org/2000/svg">
<path d="M11.6314 9.45115C11.9673 9.2218 12.3612 9.09222 12.7677 9.07741C13.1741 9.0626 13.5764 9.16316 13.9281 9.36745C14.2797 9.57175 14.5664 9.87144 14.7548 10.2318C14.9433 10.5923 15.0258 10.9986 14.9929 11.404C14.1315 11.7051 13.2165 11.8222 12.307 11.7479C12.3043 10.9342 12.0699 10.1374 11.6314 9.45187C11.2422 8.84145 10.7054 8.33905 10.0705 7.99118C9.43558 7.6433 8.72321 7.46118 7.99926 7.46168C7.27544 7.46131 6.56321 7.64348 5.92846 7.99135C5.29371 8.33922 4.75694 8.84155 4.3678 9.45187M12.3063 11.7472L12.307 11.7695C12.307 11.931 12.2984 12.0904 12.2805 12.2476C10.9776 12.9951 9.50131 13.3873 7.99926 13.3849C6.44128 13.3849 4.97879 12.9713 3.71804 12.2476C3.69958 12.0815 3.69071 11.9144 3.69148 11.7472M3.69148 11.7472C2.78227 11.8242 1.86778 11.7075 1.00701 11.4047C0.974236 10.9995 1.05683 10.5932 1.24525 10.2329C1.43367 9.87266 1.72021 9.57306 2.07175 9.36879C2.42329 9.16452 2.82547 9.06392 3.23178 9.07862C3.63809 9.09333 4.03194 9.22273 4.3678 9.45187M3.69148 11.7472C3.69406 10.9336 3.92957 10.1374 4.3678 9.45187M10.1532 3.15389C10.1532 3.72514 9.92623 4.27299 9.52229 4.67692C9.11836 5.08086 8.57051 5.30778 7.99926 5.30778C7.42801 5.30778 6.88016 5.08086 6.47623 4.67692C6.0723 4.27299 5.84537 3.72514 5.84537 3.15389C5.84537 2.58264 6.0723 2.03479 6.47623 1.63086C6.88016 1.22693 7.42801 1 7.99926 1C8.57051 1 9.11836 1.22693 9.52229 1.63086C9.92623 2.03479 10.1532 2.58264 10.1532 3.15389ZM14.4609 5.30778C14.4609 5.51992 14.4192 5.72999 14.338 5.92598C14.2568 6.12197 14.1378 6.30005 13.9878 6.45006C13.8378 6.60006 13.6597 6.71905 13.4637 6.80024C13.2677 6.88142 13.0577 6.9232 12.8455 6.9232C12.6334 6.9232 12.4233 6.88142 12.2273 6.80024C12.0313 6.71905 11.8532 6.60006 11.7032 6.45006C11.5532 6.30005 11.4342 6.12197 11.3531 5.92598C11.2719 5.72999 11.2301 5.51992 11.2301 5.30778C11.2301 4.87935 11.4003 4.46846 11.7032 4.16551C12.0062 3.86256 12.4171 3.69236 12.8455 3.69236C13.274 3.69236 13.6848 3.86256 13.9878 4.16551C14.2907 4.46846 14.4609 4.87935 14.4609 5.30778ZM4.76842 5.30778C4.76842 5.51992 4.72664 5.72999 4.64546 5.92598C4.56427 6.12197 4.44528 6.30005 4.29528 6.45006C4.14527 6.60006 3.96719 6.71905 3.7712 6.80024C3.57521 6.88142 3.36514 6.9232 3.153 6.9232C2.94086 6.9232 2.7308 6.88142 2.53481 6.80024C2.33882 6.71905 2.16074 6.60006 2.01073 6.45006C1.86073 6.30005 1.74173 6.12197 1.66055 5.92598C1.57937 5.72999 1.53759 5.51992 1.53759 5.30778C1.53759 4.87935 1.70778 4.46846 2.01073 4.16551C2.31368 3.86256 2.72457 3.69236 3.153 3.69236C3.58144 3.69236 3.99233 3.86256 4.29528 4.16551C4.59823 4.46846 4.76842 4.87935 4.76842 5.30778Z" stroke="#717171" stroke-linecap="round" stroke-linejoin="round"/>
</svg>
