<svg width="23" height="24" viewBox="0 0 23 24" fill="none" xmlns="http://www.w3.org/2000/svg">
<path d="M18.7683 18.4257L15.7465 15.4039C16.6623 14.205 17.1646 12.7508 17.1648 11.2163C17.1648 9.36703 16.4446 7.62836 15.1368 6.32078C13.8292 5.01319 12.0907 4.29297 10.2413 4.29297C8.39205 4.29297 6.65338 5.01319 5.3458 6.32078C2.64645 9.02035 2.64645 13.4126 5.3458 16.1118C6.65338 17.4196 8.39205 18.1398 10.2413 18.1398C11.7758 18.1396 13.23 17.6373 14.4289 16.7215L17.4508 19.7433C17.6325 19.9253 17.8711 20.0163 18.1096 20.0163C18.348 20.0163 18.5866 19.9253 18.7683 19.7433C19.1323 19.3796 19.1323 18.7895 18.7683 18.4257ZM6.66339 14.7942C4.69064 12.8214 4.69087 9.61135 6.66339 7.63837C7.61906 6.68293 8.88979 6.15653 10.2413 6.15653C11.593 6.15653 12.8635 6.68293 13.8192 7.63837C14.7748 8.59404 15.3012 9.86477 15.3012 11.2163C15.3012 12.568 14.7748 13.8385 13.8192 14.7942C12.8635 15.7498 11.593 16.2762 10.2413 16.2762C8.88979 16.2762 7.61906 15.7498 6.66339 14.7942Z" fill="#5A5A5A"/>
</svg>
