<svg width="16" height="17" viewBox="0 0 16 17" fill="none" xmlns="http://www.w3.org/2000/svg">
<path d="M15.6196 10.05L14.6326 9.48075C14.7886 8.66716 14.7886 7.83134 14.6326 7.01775L15.6196 6.45C15.705 6.40075 15.7799 6.33515 15.8399 6.25696C15.8999 6.17876 15.9439 6.0895 15.9694 5.99428C15.9949 5.89906 16.0014 5.79975 15.9885 5.70202C15.9755 5.6043 15.9435 5.51008 15.8941 5.42475L14.3941 2.82675C14.3451 2.74127 14.2796 2.6663 14.2016 2.60612C14.1235 2.54594 14.0344 2.50174 13.9392 2.47604C13.8441 2.45033 13.7448 2.44364 13.6471 2.45633C13.5493 2.46902 13.455 2.50085 13.3696 2.55L12.3834 3.12C11.7534 2.58315 11.0302 2.16672 10.2496 1.8915V0.75C10.2496 0.551088 10.1706 0.360322 10.0299 0.21967C9.88929 0.0790176 9.69853 0 9.49962 0H6.49962C6.3007 0 6.10994 0.0790176 5.96929 0.21967C5.82863 0.360322 5.74962 0.551088 5.74962 0.75V1.8915C4.96901 2.16695 4.24573 2.58363 3.61587 3.12075L2.62962 2.55C2.54428 2.50079 2.45008 2.46887 2.3524 2.45607C2.25473 2.44327 2.15549 2.44984 2.06035 2.4754C1.96521 2.50096 1.87604 2.54501 1.79793 2.60504C1.71982 2.66507 1.6543 2.7399 1.60512 2.82525L0.105116 5.42325C0.0555213 5.50864 0.023277 5.60298 0.0102336 5.70086C-0.00280972 5.79875 0.00360478 5.89824 0.029109 5.99364C0.0546133 6.08904 0.0987052 6.17846 0.158854 6.25677C0.219004 6.33509 0.294026 6.40075 0.379616 6.45L1.36662 7.01925C1.21062 7.83284 1.21062 8.66866 1.36662 9.48225L0.379616 10.05C0.294225 10.0992 0.21938 10.1648 0.159361 10.243C0.0993415 10.3212 0.0553261 10.4105 0.0298316 10.5057C0.00433721 10.6009 -0.00213616 10.7003 0.0107819 10.798C0.0236999 10.8957 0.0557559 10.9899 0.105116 11.0753L1.60512 13.6733C1.70453 13.8455 1.86828 13.9712 2.06037 14.0228C2.25262 14.0732 2.45698 14.0462 2.62962 13.9478L3.61587 13.3778C4.24561 13.9154 4.9689 14.3326 5.74962 14.6085V15.75C5.74962 15.9489 5.82863 16.1397 5.96929 16.2803C6.10994 16.421 6.3007 16.5 6.49962 16.5H9.49962C9.69853 16.5 9.88929 16.421 10.0299 16.2803C10.1706 16.1397 10.2496 15.9489 10.2496 15.75V14.6085C11.0302 14.3331 11.7535 13.9164 12.3834 13.3793L13.3696 13.9493C13.5422 14.0479 13.7466 14.0748 13.9389 14.0243C14.131 13.9727 14.2947 13.847 14.3941 13.6747L15.8941 11.0767C15.9437 10.9914 15.976 10.897 15.989 10.7991C16.002 10.7013 15.9956 10.6018 15.9701 10.5064C15.9446 10.411 15.9005 10.3215 15.8404 10.2432C15.7802 10.1649 15.7052 10.0992 15.6196 10.05ZM7.99962 12C7.25794 12 6.53291 11.7801 5.91623 11.368C5.29954 10.956 4.8189 10.3703 4.53507 9.68506C4.25124 8.99984 4.17698 8.24584 4.32167 7.51841C4.46637 6.79098 4.82352 6.1228 5.34797 5.59835C5.87241 5.0739 6.5406 4.71675 7.26803 4.57206C7.99546 4.42736 8.74946 4.50162 9.43468 4.78545C10.1199 5.06928 10.7056 5.54993 11.1176 6.16661C11.5297 6.7833 11.7496 7.50832 11.7496 8.25C11.7484 9.2442 11.353 10.1973 10.65 10.9003C9.94695 11.6033 8.99381 11.9988 7.99962 12Z" fill="#B5B5B5"/>
</svg>
