<svg width="18" height="17" viewBox="0 0 18 17" fill="none" xmlns="http://www.w3.org/2000/svg">
<path d="M17.211 6.24044C17.1671 6.10942 17.0878 5.99309 16.9819 5.90429C16.8761 5.81548 16.7477 5.75766 16.611 5.73719L11.8245 5.00594L9.67654 0.430941C9.61598 0.302094 9.51998 0.193147 9.39979 0.116836C9.2796 0.0405241 9.14016 0 8.99779 0C8.85542 0 8.71599 0.0405241 8.59579 0.116836C8.4756 0.193147 8.37961 0.302094 8.31904 0.430941L6.17104 5.00594L1.38454 5.73719C1.24821 5.75797 1.12024 5.81594 1.01471 5.90473C0.909186 5.99351 0.830181 6.10967 0.786384 6.24044C0.742587 6.37121 0.735695 6.51153 0.766464 6.64596C0.797234 6.78039 0.864473 6.90374 0.960792 7.00244L4.44904 10.5739L3.62404 15.6274C3.60153 15.7661 3.61842 15.9084 3.67281 16.0379C3.72719 16.1675 3.81687 16.2791 3.93163 16.3602C4.04638 16.4413 4.18161 16.4885 4.32188 16.4964C4.46216 16.5044 4.60185 16.4728 4.72504 16.4052L9.00004 14.0442L13.275 16.4052C13.3982 16.4733 13.5381 16.5054 13.6787 16.4978C13.8192 16.4902 13.9548 16.4432 14.0699 16.3621C14.185 16.281 14.275 16.1692 14.3295 16.0394C14.384 15.9096 14.4009 15.7671 14.3783 15.6282L13.5533 10.5747L17.0393 7.00244C17.1352 6.90346 17.2019 6.77999 17.2322 6.64557C17.2625 6.51114 17.2552 6.37098 17.211 6.24044V6.24044Z" fill="#B5B5B5"/>
</svg>
