<svg width="43" height="43" viewBox="0 0 43 43" fill="none" xmlns="http://www.w3.org/2000/svg">
<rect width="42.3754" height="42.3754" rx="6" fill="#DCDCDC"/>
<path fill-rule="evenodd" clip-rule="evenodd" d="M24.7806 12.2738V11.1369C24.7806 10.5093 25.2951 10 25.929 10C26.5629 10 27.0774 10.5093 27.0774 11.1369V12.2738C29.6153 12.2738 31.6709 14.31 31.6709 16.8214V28.1904C31.6709 30.7018 29.6153 32.738 27.0774 32.738C23.7942 32.738 18.8779 32.738 15.5935 32.738C13.0568 32.738 11 30.7018 11 28.1904V16.8214C11 14.31 13.0568 12.2738 15.5935 12.2738V11.1369C15.5935 10.5093 16.108 10 16.7419 10C17.3758 10 17.8903 10.5093 17.8903 11.1369V12.2738H24.7806ZM29.3742 21.369H13.2968V28.1904C13.2968 29.4456 14.3257 30.4642 15.5935 30.4642H27.0774C28.3464 30.4642 29.3742 29.4456 29.3742 28.1904V21.369ZM23.5094 25.5244L25.1286 23.9646C25.5833 23.5269 26.3103 23.5371 26.7524 23.9873C27.1945 24.4364 27.1842 25.1572 26.7306 25.5949L24.3695 27.8687C23.9469 28.2745 23.2843 28.2996 22.833 27.9267L21.5399 26.858C21.053 26.4566 20.9875 25.7393 21.394 25.2572C21.7994 24.7752 22.524 24.7104 23.011 25.1128L23.5094 25.5244ZM27.0774 14.5476V15.6845C27.0774 16.3121 26.5629 16.8214 25.929 16.8214C25.2951 16.8214 24.7806 16.3121 24.7806 15.6845V14.5476H17.8903V15.6845C17.8903 16.3121 17.3758 16.8214 16.7419 16.8214C16.108 16.8214 15.5935 16.3121 15.5935 15.6845V14.5476C14.3257 14.5476 13.2968 15.5651 13.2968 16.8214V19.0952H29.3742V16.8214C29.3742 15.5651 28.3464 14.5476 27.0774 14.5476Z" fill="white"/>
</svg>
