<svg width="68" height="42" viewBox="0 0 68 42" fill="none" xmlns="http://www.w3.org/2000/svg">
<path d="M61 20V10C61 6.68629 58.3137 4 55 4H53C49.6863 4 47 6.68629 47 10V13C47 14.1046 46.1046 15 45 15C43.8954 15 43 14.1046 43 13V10C43 4.47715 47.4772 0 53 0H55C60.5228 0 65 4.47715 65 10V20.126C66.7252 20.5701 68 22.1362 68 24V38C68 40.2091 66.2091 42 64 42H44C41.7909 42 40 40.2091 40 38V24C40 21.7909 41.7909 20 44 20H61ZM38.7084 18C37.0475 19.4659 36 21.6106 36 24V36H9C4.02944 36 0 31.9706 0 27C0 22.0294 4.02944 18 9 18H38.7084ZM9 30C10.6569 30 12 28.6569 12 27C12 25.3431 10.6569 24 9 24C7.34315 24 6 25.3431 6 27C6 28.6569 7.34315 30 9 30ZM19 30C20.6569 30 22 28.6569 22 27C22 25.3431 20.6569 24 19 24C17.3431 24 16 25.3431 16 27C16 28.6569 17.3431 30 19 30ZM29 30C30.6569 30 32 28.6569 32 27C32 25.3431 30.6569 24 29 24C27.3431 24 26 25.3431 26 27C26 28.6569 27.3431 30 29 30Z" fill="black"/>
</svg>
