<svg width="46" height="46" viewBox="0 0 46 46" fill="none" xmlns="http://www.w3.org/2000/svg">
<rect width="45.476" height="45.476" rx="22.738" fill="#515151"/>
<path d="M16.4313 17.9002V24.1511C16.4313 24.836 16.6097 25.3617 16.9666 25.7283C17.3235 26.0852 17.8252 26.2636 18.4715 26.2636C19.1274 26.2636 19.6339 26.0852 19.9908 25.7283C20.3477 25.3617 20.5262 24.836 20.5262 24.1511V17.9002H22.5664V24.1366C22.5664 24.9951 22.3783 25.7234 22.0021 26.3215C21.6355 26.91 21.1387 27.3537 20.5117 27.6527C19.8943 27.9518 19.2046 28.1013 18.4425 28.1013C17.6901 28.1013 17.0052 27.9518 16.3878 27.6527C15.7801 27.3537 15.2978 26.91 14.9409 26.3215C14.584 25.7234 14.4055 24.9951 14.4055 24.1366V17.9002H16.4313ZM31.8887 21.0256C31.8887 21.5658 31.7585 22.0723 31.498 22.5449C31.2472 23.0176 30.8469 23.3987 30.297 23.688C29.7568 23.9774 29.0719 24.1221 28.2423 24.1221H26.5494V28H24.5236V17.9002H28.2423C29.0237 17.9002 29.6893 18.0352 30.2391 18.3053C30.789 18.5754 31.199 18.9468 31.4691 19.4195C31.7488 19.8922 31.8887 20.4276 31.8887 21.0256ZM28.1555 22.4871C28.715 22.4871 29.1298 22.3617 29.3999 22.1109C29.67 21.8504 29.8051 21.4887 29.8051 21.0256C29.8051 20.0417 29.2552 19.5497 28.1555 19.5497H26.5494V22.4871H28.1555Z" fill="white"/>
</svg>
